
<svg xmlns="http://www.w3.org/2000/svg" xmlns:xlink="http://www.w3.org/1999/xlink" width="210mm" height="297mm">
    <defs>
        <linearGradient id="c">
            <stop offset="0"/>
            <stop offset="1" stop-opacity="0"/>
        </linearGradient>
        <linearGradient id="b">
            <stop offset="0" stop-color="#1a1a1a"/>
            <stop offset="1" stop-color="#1a1a1a" stop-opacity="0"/>
        </linearGradient>
        <linearGradient id="a">
            <stop offset="0" stop-color="#fff"/>
            <stop offset="1" stop-color="#fff" stop-opacity="0"/>
        </linearGradient>
        <linearGradient xlink:href="#a" id="i" x1="373.4" x2="373.6" y1="694.1" y2="672.5" gradientTransform="translate(6.1 7.5)" gradientUnits="userSpaceOnUse"/>
        <linearGradient xlink:href="#a" id="j" x1="373.4" x2="373.6" y1="694.1" y2="672.5" gradientTransform="matrix(.98487 0 0 -1 11.7 1310.1)" gradientUnits="userSpaceOnUse"/>
        <linearGradient xlink:href="#a" id="k" x1="353.6" x2="355.8" y1="689" y2="689" gradientTransform="translate(6)" gradientUnits="userSpaceOnUse"/>
        <linearGradient xlink:href="#a" id="l" x1="353.6" x2="355.8" y1="689" y2="689" gradientTransform="matrix(1 0 0 -1 6 1317.2)" gradientUnits="userSpaceOnUse"/>
        <linearGradient xlink:href="#a" id="n" x1="353.6" x2="355.8" y1="689" y2="689" gradientTransform="matrix(-1 0 0 1 751.4 0)" gradientUnits="userSpaceOnUse"/>
        <linearGradient xlink:href="#a" id="o" x1="353.6" x2="355.8" y1="689" y2="689" gradientTransform="rotate(180 375.7 658.6)" gradientUnits="userSpaceOnUse"/>
        <linearGradient xlink:href="#a" id="q" x1="373.4" x2="373.6" y1="694.1" y2="672.5" gradientTransform="matrix(1 0 0 .38243 6.1 427.5)" gradientUnits="userSpaceOnUse"/>
        <linearGradient xlink:href="#a" id="r" x1="373.4" x2="373.6" y1="694.1" y2="672.5" gradientTransform="matrix(.98395 0 0 -.38243 12 888.6)" gradientUnits="userSpaceOnUse"/>
        <linearGradient xlink:href="#a" id="s" x1="373.4" x2="373.6" y1="694.1" y2="672.5" gradientTransform="matrix(-1 0 0 1 580.4 7.5)" gradientUnits="userSpaceOnUse"/>
        <linearGradient xlink:href="#a" id="t" x1="373.4" x2="373.6" y1="694.1" y2="672.5" gradientTransform="matrix(-.98487 0 0 -1 574.8 1310.1)" gradientUnits="userSpaceOnUse"/>
        <linearGradient xlink:href="#a" id="u" x1="353.6" x2="355.8" y1="689" y2="689" gradientTransform="matrix(-1 0 0 1 580.5 0)" gradientUnits="userSpaceOnUse"/>
        <linearGradient xlink:href="#a" id="v" x1="353.6" x2="355.8" y1="689" y2="689" gradientTransform="rotate(180 290.3 658.6)" gradientUnits="userSpaceOnUse"/>
        <linearGradient xlink:href="#a" id="x" x1="353.6" x2="355.8" y1="689" y2="689" gradientTransform="translate(-164.9)" gradientUnits="userSpaceOnUse"/>
        <linearGradient xlink:href="#a" id="y" x1="353.6" x2="355.8" y1="689" y2="689" gradientTransform="matrix(1 0 0 -1 -165 1317.2)" gradientUnits="userSpaceOnUse"/>
        <linearGradient xlink:href="#a" id="A" x1="373.4" x2="373.6" y1="694.1" y2="672.5" gradientTransform="matrix(-1 0 0 .38243 580.4 427.5)" gradientUnits="userSpaceOnUse"/>
        <linearGradient xlink:href="#a" id="B" x1="373.4" x2="373.6" y1="694.1" y2="672.5" gradientTransform="matrix(-.98395 0 0 -.38243 574.5 888.6)" gradientUnits="userSpaceOnUse"/>
        <linearGradient xlink:href="#a" id="C" x1="373.4" x2="373.6" y1="694.1" y2="672.5" gradientTransform="matrix(1.1574 0 0 .99645 -58.3 -343)" gradientUnits="userSpaceOnUse"/>
        <linearGradient xlink:href="#a" id="D" x1="373.4" x2="373.6" y1="694.1" y2="672.5" gradientTransform="matrix(1.1398 0 0 -.99645 -51.8 955)" gradientUnits="userSpaceOnUse"/>
        <linearGradient xlink:href="#a" id="E" x1="353.6" x2="355.8" y1="689" y2="689" gradientTransform="matrix(1.1574 0 0 .99645 -58.4 -350.5)" gradientUnits="userSpaceOnUse"/>
        <linearGradient xlink:href="#a" id="F" x1="353.6" x2="355.8" y1="689" y2="689" gradientTransform="matrix(1.1574 0 0 -.99645 -58.4 962)" gradientUnits="userSpaceOnUse"/>
        <linearGradient xlink:href="#a" id="H" x1="353.6" x2="355.8" y1="689" y2="689" gradientTransform="matrix(-1.1574 0 0 .99645 804.3 -350.5)" gradientUnits="userSpaceOnUse"/>
        <linearGradient xlink:href="#a" id="I" x1="353.6" x2="355.8" y1="689" y2="689" gradientTransform="matrix(-1.1574 0 0 -.99645 804.3 962)" gradientUnits="userSpaceOnUse"/>
        <linearGradient xlink:href="#a" id="K" x1="373.4" x2="373.6" y1="694.1" y2="672.5" gradientTransform="matrix(1.1574 0 0 .38107 -58.3 75.5)" gradientUnits="userSpaceOnUse"/>
        <linearGradient xlink:href="#a" id="L" x1="373.4" x2="373.6" y1="694.1" y2="672.5" gradientTransform="matrix(1.1388 0 0 -.38107 -51.5 535)" gradientUnits="userSpaceOnUse"/>
        <linearGradient xlink:href="#a" id="M" x1="373.4" x2="373.6" y1="694.1" y2="672.5" gradientTransform="matrix(-1.1574 0 0 .99645 644.8 -343)" gradientUnits="userSpaceOnUse"/>
        <linearGradient xlink:href="#a" id="N" x1="373.4" x2="373.6" y1="694.1" y2="672.5" gradientTransform="matrix(-1.1398 0 0 -.99645 638.3 955)" gradientUnits="userSpaceOnUse"/>
        <linearGradient xlink:href="#a" id="O" x1="353.6" x2="355.8" y1="689" y2="689" gradientTransform="matrix(-1.1574 0 0 .99645 645 -350.5)" gradientUnits="userSpaceOnUse"/>
        <linearGradient xlink:href="#a" id="P" x1="353.6" x2="355.8" y1="689" y2="689" gradientTransform="matrix(-1.1574 0 0 -.99645 645 962)" gradientUnits="userSpaceOnUse"/>
        <linearGradient xlink:href="#a" id="R" x1="353.6" x2="355.8" y1="689" y2="689" gradientTransform="matrix(1.1574 0 0 .99645 -217.7 -350.5)" gradientUnits="userSpaceOnUse"/>
        <linearGradient xlink:href="#a" id="S" x1="353.6" x2="355.8" y1="689" y2="689" gradientTransform="matrix(1.1574 0 0 -.99645 -217.8 962)" gradientUnits="userSpaceOnUse"/>
        <linearGradient xlink:href="#a" id="U" x1="373.4" x2="373.6" y1="694.1" y2="672.5" gradientTransform="matrix(-1.1574 0 0 .38107 644.8 75.5)" gradientUnits="userSpaceOnUse"/>
        <linearGradient xlink:href="#a" id="V" x1="373.4" x2="373.6" y1="694.1" y2="672.5" gradientTransform="matrix(-1.1388 0 0 -.38107 638 535)" gradientUnits="userSpaceOnUse"/>
        <linearGradient id="ag" x1="285.1" x2="287.6" y1="495.5" y2="455.4" gradientTransform="translate(.2 -1.4)" gradientUnits="userSpaceOnUse">
            <stop offset="0" stop-color="#fff"/>
            <stop offset="1" stop-color="#fff" stop-opacity="0"/>
        </linearGradient>
        <linearGradient xlink:href="#c" id="ah" x1="231.4" x2="231.7" y1="738.6" y2="775.9" gradientUnits="userSpaceOnUse"/>
        <linearGradient xlink:href="#a" id="ak" x1="346.9" x2="346.8" y1="523.9" y2="521.2" gradientTransform="matrix(-.97567 .23157 .22245 .95762 458.9 -58.4)" gradientUnits="userSpaceOnUse"/>
        <linearGradient xlink:href="#a" id="Z" x1="346.9" x2="346.8" y1="523.9" y2="521.2" gradientTransform="matrix(.96309 .23398 -.23164 .91515 136.1 -37)" gradientUnits="userSpaceOnUse"/>
        <radialGradient xlink:href="#a" id="m" cx="354.3" cy="656" r=".8" gradientTransform="matrix(1 0 0 11.007 6.2 -6563.5)" gradientUnits="userSpaceOnUse"/>
        <radialGradient xlink:href="#a" id="p" cx="354.3" cy="656" r=".8" gradientTransform="matrix(-1 0 0 12.78 751.2 -7722.5)" gradientUnits="userSpaceOnUse"/>
        <radialGradient xlink:href="#a" id="w" cx="354.3" cy="656" r=".8" gradientTransform="matrix(-1 0 0 11.007 580.3 -6563.5)" gradientUnits="userSpaceOnUse"/>
        <radialGradient xlink:href="#a" id="z" cx="354.3" cy="656" r=".8" gradientTransform="matrix(1 0 0 12.78 -164.7 -7722.5)" gradientUnits="userSpaceOnUse"/>
        <radialGradient xlink:href="#a" id="G" cx="354.3" cy="656" r=".8" gradientTransform="matrix(1.1574 0 0 10.968 -58.2 -6890.7)" gradientUnits="userSpaceOnUse"/>
        <radialGradient xlink:href="#a" id="J" cx="354.3" cy="656" r=".8" gradientTransform="matrix(-1.1574 0 0 12.734 804 -8045.6)" gradientUnits="userSpaceOnUse"/>
        <radialGradient xlink:href="#a" id="Q" cx="354.3" cy="656" r=".8" gradientTransform="matrix(-1.1574 0 0 10.968 644.7 -6890.7)" gradientUnits="userSpaceOnUse"/>
        <radialGradient xlink:href="#a" id="T" cx="354.3" cy="656" r=".8" gradientTransform="matrix(1.1574 0 0 12.734 -217.5 -8045.6)" gradientUnits="userSpaceOnUse"/>
        <radialGradient xlink:href="#b" id="ac" cx="289.8" cy="424.3" r="3" gradientTransform="matrix(1 0 0 9.4486 .2 -3586)" gradientUnits="userSpaceOnUse"/>
        <radialGradient xlink:href="#b" id="ae" cx="289.8" cy="424.3" r="3" gradientTransform="matrix(-1 0 0 9.4486 586.2 -3586.1)" gradientUnits="userSpaceOnUse"/>
        <radialGradient id="av" cx="405.1" cy="555.4" r="73.7" gradientTransform="matrix(.1942 0 0 .11367 214.8 455.2)" gradientUnits="userSpaceOnUse">
            <stop offset="0" stop-color="#fff"/>
            <stop offset="1" stop-color="#fff" stop-opacity="0"/>
        </radialGradient>
        <radialGradient id="aw" cx="130.4" cy="430.2" r="56.1" gradientTransform="matrix(1 0 0 1.0573 0 -24.7)" gradientUnits="userSpaceOnUse">
            <stop offset="0" stop-color="#fff"/>
            <stop offset="1" stop-color="#fff" stop-opacity="0"/>
        </radialGradient>
        <radialGradient cx="272.7" cy="298.8" r="23" gradientTransform="matrix(1 0 0 1.5703 -128.7 -76.4)" gradientUnits="userSpaceOnUse">
            <stop offset="0" stop-color="red"/>
            <stop offset="1" stop-color="red" stop-opacity="0"/>
        </radialGradient>
        <radialGradient cx="165" cy="293.6" r="23" gradientTransform="matrix(1 0 0 1.5703 -20.3 -162.3)" gradientUnits="userSpaceOnUse">
            <stop offset="0" stop-color="#ff0"/>
            <stop offset="1" stop-color="#ff0" stop-opacity="0"/>
        </radialGradient>
        <radialGradient cx="155.2" cy="518.9" r="102.4" gradientTransform="matrix(1 0 0 .4857 0 266.9)" gradientUnits="userSpaceOnUse">
            <stop offset="0" stop-color="#ff0"/>
            <stop offset="1" stop-color="#ff0" stop-opacity="0"/>
        </radialGradient>
        <radialGradient cx="152.7" cy="631" r="103.9" gradientTransform="matrix(1 0 0 .49313 0 319.8)" gradientUnits="userSpaceOnUse">
            <stop offset="0" stop-color="red"/>
            <stop offset="1" stop-color="red" stop-opacity="0"/>
        </radialGradient>
        <radialGradient xlink:href="#a" id="al" cx="356.8" cy="405.1" r="13.5" gradientTransform="matrix(.57445 -.4217 .716 .86702 -248.4 158.9)" gradientUnits="userSpaceOnUse"/>
        <radialGradient xlink:href="#a" id="aj" cx="356.8" cy="405.1" r="13.5" gradientTransform="matrix(-.88139 .47239 .82373 1.5369 214.9 -397.7)" gradientUnits="userSpaceOnUse"/>
        <radialGradient xlink:href="#a" id="am" cx="356.8" cy="405.1" r="13.5" gradientTransform="matrix(.88139 .47239 -.82373 1.5369 371.5 -397.7)" gradientUnits="userSpaceOnUse"/>
        <radialGradient xlink:href="#a" id="an" cx="356.8" cy="405.1" r="13.5" gradientTransform="matrix(-.57445 -.4217 -.716 .86702 834.8 158.9)" gradientUnits="userSpaceOnUse"/>
        <radialGradient xlink:href="#a" id="au" cx="367.9" cy="471.2" r="2.3" gradientTransform="matrix(1 0 0 16.461 -74.3 -7081.2)" gradientUnits="userSpaceOnUse"/>
        <radialGradient xlink:href="#a" id="aq" cx="367.9" cy="471.2" r="2.3" gradientTransform="matrix(1 0 0 16.461 -12.4 -7274.7)" gradientUnits="userSpaceOnUse"/>
        <radialGradient xlink:href="#a" id="as" cx="367.9" cy="471.2" r="2.3" gradientTransform="matrix(1 0 0 16.461 -138.5 -7268.5)" gradientUnits="userSpaceOnUse"/>
        <filter id="af" width="1.8" height="1.1" x="-.4" y="0">
            <feGaussianBlur stdDeviation=".9"/>
        </filter>
        <filter id="ad" width="1.8" height="1.1" x="-.4" y="0">
            <feGaussianBlur stdDeviation=".9"/>
        </filter>
        <filter id="ab">
            <feGaussianBlur stdDeviation=".3"/>
        </filter>
        <filter id="f">
            <feGaussianBlur stdDeviation="4.8"/>
        </filter>
        <filter id="e" width="1.1" height="1.3" x="0" y="-.1">
            <feGaussianBlur stdDeviation="1.4"/>
        </filter>
        <filter id="d">
            <feGaussianBlur stdDeviation="2.2"/>
        </filter>
        <filter id="g" width="1.2" height="1.1" x="-.1" y="-.1">
            <feGaussianBlur stdDeviation=".5"/>
        </filter>
        <filter id="ai" width="1.1" height="1.4" x="0" y="-.2">
            <feGaussianBlur stdDeviation=".9"/>
        </filter>
        <filter id="W">
            <feGaussianBlur stdDeviation="1.1"/>
        </filter>
        <filter id="X">
            <feGaussianBlur stdDeviation="1.1"/>
        </filter>
        <filter id="Y" width="1.2" height="1" x="-.1" y="0">
            <feGaussianBlur stdDeviation="2.5"/>
        </filter>
        <filter id="aa">
            <feGaussianBlur stdDeviation=".7"/>
        </filter>
        <filter id="ar" width="1.6" height="1" x="-.3" y="0">
            <feGaussianBlur stdDeviation=".6"/>
        </filter>
        <filter id="at" width="1.6" height="1" x="-.3" y="0">
            <feGaussianBlur stdDeviation=".6"/>
        </filter>
        <filter id="ap" width="1.5" height="1.1" x="-.2" y="0">
            <feGaussianBlur stdDeviation="2.4"/>
        </filter>
        <filter id="ao" width="1.6" height="1.1" x="-.3" y="0">
            <feGaussianBlur stdDeviation="2.9"/>
        </filter>
        <filter id="h">
            <feGaussianBlur stdDeviation="5.4"/>
        </filter>
    </defs>
    <rect width="213.1" height="79.8" x="186.9" y="267.5" filter="url(#d)" opacity=".5" ry="1.1"/>
    <rect width="86.4" height="24.2" x="249.6" y="249.8" filter="url(#e)" opacity=".5" ry=".7" transform="matrix(1.012 0 0 .72388 -2.6 69.5)"/>
    <rect width="173.8" height="209.1" x="206.1" y="335.7" filter="url(#f)" opacity=".5" ry="3" transform="matrix(1 0 0 .94318 0 31)"/>
    <rect width="10.6" height="15.7" x="287.4" y="237.2" filter="url(#g)" opacity=".5" ry="2.8" transform="matrix(1.0107 0 0 .50397 -2.4 125.3)"/>
    <path d="m203 756.3-4.7-3.2-.6-10.6-1.2-27-.6-16.5h5.2c4.1 0 11.7 2.3 35 10.6 16.4 5.9 30 10.6 30.2 10.6s.4-8.6.3-19.2l-.3-19.3-10.5-4.5c-5.7-2.4-10.8-4.4-11.3-4.4s-2.5 5.2-4.5 11.6l-3.6 11.6h-15c-8.2 0-19.7.3-25.7.7l-10.7.6v-85.1h48.5v12.7c0 7 .4 12.5.8 12.3.5-.1 7.1-6.3 14.7-13.6l13.8-13.2v-24l-14.2-20.6c-7.8-11.3-14-20.8-13.7-21 .6-.7 105.5-2.6 113.5-2.1l5.4.3-29.4 42.7V611l13.6 13c7.5 7 14.1 13 14.7 13.2.6.3 1-4.4 1-12.3v-12.7h48.5v85.1l-11.4-.6c-6.3-.4-18-.7-26-.7H350l-3.4-11.6c-1.8-6.4-3.8-11.6-4.4-11.6s-5.7 2-11.3 4.4l-10 4.4-.3 19.3c-.2 10.6-.2 19.4 0 19.4l30-10.7c23.8-8.4 30.8-10.6 35.2-10.6h5.4l-.5 3.8c-.3 2.1-.9 14.1-1.2 26.8l-.7 23-9.9 7H207.7l-4.7-3.3z" filter="url(#h)" opacity=".5"/>
    <g fill="none" stroke="#000">
        <path stroke-width="1" d="M267.3 311.4h10.4V308l12.3.2M214.4 349l21-2.8 8.3-11.4M236 311l36.8 35.4M236 306.1l41.4 39.9M243.5 334.2l14.7 14.2M235.7 315.8l32 30.9"/>
        <path stroke-width="1" d="m241.2 337.6-.2-7.5h-4.8M243.5 329.2l19.3 19M243.4 323l.2 12M240.9 321.2v9.2M235.9 330.7l-.2-37.2"/>
        <rect width="34.6" height="69.8" x="196.3" y="270.2" rx="18" ry="0"/>
        <path stroke-width="1" d="m196 339.9-4.2-5.6v-59l4.4-5M231 339.9l4.3-5.6v-59l-4.4-5M196.3 319.7h34.4M196.3 319.7h34.4M196.3 335.7h34.4M196.3 289.7h34.4M196.3 271.7h34.4"/>
        <rect width="17.3" height="7.9" x="240.3" y="541.7" rx="8.6" ry="0"/>
        <path stroke-width="1" d="m247.8 550.3 15.6 27.4M256.2 550l7.5 12.2M275.4 490.5l.1 35.1M275.4 491c1.2-2.4 2.6-3.6 4.2-4l27.4-.2M305.9 566.7l-25 .2c-5.2-4.3-9-11-10.5-21.4l5.2-20.5"/>
        <rect width="32.3" height="70" x="191.7" y="623.1" rx="0"/>
        <path stroke-width="1" d="m191.9 622.7-4 5.4.2 61 3.4 4.2M223.8 622.7l4 5.4-.2 61-3.4 4.2M191.7 626.9l32.5.2M191.7 642.9l32.5.2M191.7 670.9l32.5.2M191.7 688.9l32.5.2"/>
        <path stroke-width="1" d="m227.7 683.5 9.9.2v-11.5l-10-7.6M228.1 664.7c13.1 7.7 26 9.6 40.4 10.6M267.6 669.1c-18.2-.8-26.2-3.3-36.2-5.8M267.5 665.5l-35.2-1.8M267.4 657.9c-13.8.5-24-1-36.3-1.6M231.8 652.2l35.2-4.9M237.3 656.6 267 653M265.2 613c-12.3 12-23.3 26.1-37.5 34.7M266.4 627.9a240 240 0 0 0-34.8 24.6"/>
        <path stroke-width="1" d="M277.3 453.7H312.1V474.8H277.3z"/>
        <path stroke-width="1" d="m247 294.8-11.4-.1M246.5 241l.5 70.4h2.8l-1-70.4M246 241.1h2.7M249.1 257.4l87.7-.6M287.5 257.2v-6.8l3.2-3.2h4.5M249.1 299.4l87.7-.6M283 345.9l-42.3-39.6-4.3-.2M249.6 307.4l34.9-2M249.6 304.9l34.9-2.4M284.5 299v9M289.8 307.4l.7-8.6M249.6 307.6l28.4.3M249.8 311.3l27.9.1M319.4 311.4h-10.6V308l-12.2.2M311.2 490.5l-.1 35.1M311.2 491c-1.2-2.4-2.6-3.6-4.2-4l-27.4-.2M280.7 566.7l25 .2c5.1-4.3 8.9-11 10.5-21.4l-5.3-20.5"/>
        <path stroke-width="1" d="M-309.3 453.7H-274.5V474.8H-309.3z" transform="scale(-1 1)"/>
        <path stroke-width="1" d="m340 241-.4 70.4h-2.8l1-70.4M340.5 241.1h-2.7M337.5 257.4l-87.7-.6M299 257.2v-6.8l-3.1-3.2h-4.5M337.5 299.4l-87.7-.6M337 307.4l-34.9-2M337 304.9l-34.9-2.4M302.1 299v9M296.8 307.4l-.8-8.6M337 307.6l-28.5.3M336.8 311.3l-27.9.1M258.6 519.5l-42.9 9.7M215.7 529.5c-2.3-43.7-1.2-84.6 12.5-115M216 528.8l43.6.7M228.2 414.9l4-62.5 11.4-4H262l4-1.8 16.4-.7-18.6 14.3-31.8-7.7"/>
        <path stroke-width="1" d="m289.2 307.6-6.1 39-5.8 74.2-18.2 41.6 1.8 90 2.2 3.7 8.4 194.5 16.9 6h9.3"/>
        <path stroke-width="1" d="M270.2 732.1h-13.9L245 715.2l-12.4-.2-25.3-11.6-1-3.8h-5.8l1.3 53.2 6.8 4.6 14.1.2v-6.3l53.6.8M319.1 311.4h-10.4V308l-12.3.2M372 349l-21-2.8-8.3-11.4M350.4 311l-36.8 35.4M350.4 306.1 309 346M343 334.2l-14.8 14.2M350.7 315.8l-32 30.9"/>
        <path stroke-width="1" d="m345.3 337.6.1-7.5h4.8M342.9 329.2l-19.3 19M343 323l-.2 12M345.5 321.2v9.2M350.6 330.7l.1-37.2"/>
        <rect width="34.6" height="69.8" x="-390.2" y="270.2" rx="18" ry="0" transform="scale(-1 1)"/>
        <path stroke-width="1" d="m390.4 339.9 4.2-5.6v-59l-4.4-5M355.4 339.9l-4.3-5.6v-59l4.5-5M390.2 319.7h-34.5M390.2 319.7h-34.5M390.2 335.7h-34.5M390.2 289.7h-34.5M390.2 271.7h-34.5"/>
        <rect width="17.3" height="7.9" x="-346.1" y="541.7" rx="8.6" ry="0" transform="scale(-1 1)"/>
        <path stroke-width="1" d="M338.7 550.3 323 577.7M330.3 550l-7.6 12.2M311 490.5v35.1M311 491c-1.2-2.4-2.6-3.6-4.1-4l-27.4-.2M280.5 566.7l25.1.2c5.1-4.3 8.9-11 10.4-21.4l-5.2-20.5"/>
        <rect width="32.3" height="70" x="-394.8" y="623.1" rx="0" transform="scale(-1 1)"/>
        <path stroke-width="1" d="m394.6 622.7 3.9 5.4-.2 61-3.4 4.2M362.6 622.7l-4 5.4.2 61 3.4 4.2M394.8 626.9l-32.6.2M394.8 642.9l-32.6.2M394.8 670.9l-32.6.2M394.8 688.9l-32.6.2"/>
        <path stroke-width="1" d="m358.7 683.5-9.8.2v-11.5l10-7.6M358.3 664.7a86.8 86.8 0 0 1-40.3 10.6M318.8 669.1c18.2-.8 26.2-3.3 36.2-5.8M319 665.5l35.2-1.8M319 657.9c13.8.5 24-1 36.3-1.6M354.7 652.2l-35.3-4.9M349.1 656.6l-29.6-3.7M321.2 613c12.3 12 23.4 26.1 37.5 34.7M320 627.9a240 240 0 0 1 34.8 24.6"/>
        <path stroke-width="1" d="M-309.1 453.7H-274.3V474.8H-309.1z" transform="scale(-1 1)"/>
        <path stroke-width="1" d="m339.4 294.8 11.5-.1M340 241l-.6 70.4h-2.7l1-70.4M340.4 241.1h-2.7M337.3 257.4l-87.7-.6M299 257.2v-6.8l-3.3-3.2h-4.4M337.3 299.4l-87.7-.6M303.5 345.9l42.2-39.6 4.3-.2M336.8 307.4l-34.8-2M336.8 304.9l-34.8-2.4M302 299v9M296.6 307.4l-.7-8.6M336.8 307.6l-28.4.3M336.7 311.3l-28 .1M267 311.4h10.6V308l12.3.2M275.3 490.5v35.1M275.3 491c1.2-2.4 2.6-3.6 4.1-4l27.4-.2M305.7 566.7l-25 .2c-5.1-4.3-8.9-11-10.4-21.4l5.2-20.5"/>
        <path stroke-width="1" d="M277.1 453.7H311.9V474.8H277.1z"/>
        <path stroke-width="1" d="m246.3 241 .5 70.4h2.8l-1-70.4M246 241.1h2.6M249 257.4l87.6-.6M287.4 257.2v-6.8l3.2-3.2h4.4M249 299.4l87.6-.6M249.5 307.4l34.8-2M249.5 304.9l34.8-2.4M284.3 299v9M289.7 307.4l.7-8.6M249.5 307.6l28.4.3M249.6 311.3l28 .1M327.9 519.5l42.8 9.7M370.7 529.5c2.3-43.7 1.3-84.6-12.5-115M370.4 528.8l-43.6.7M358.2 414.9l-4-62.5-11.3-4h-18.6l-4-1.8-16.4-.7 18.6 14.3 31.8-7.7"/>
        <path stroke-width="1" d="m297.3 307.6 6 39 5.8 74.2 18.2 41.6-1.7 90-2.3 3.7-8.4 194.5-16.9 6h-9.3"/>
        <path stroke-width="1" d="M316.2 732.1h13.9l11.4-16.9 12.3-.2 25.3-11.6 1-3.8h5.8l-1.3 53.2-6.8 4.6-14.1.2v-6.3l-53.6.8"/>
    </g>
    <g fill="gray">
        <path d="M251.8 298h-1.5l-.2-11.9c-.2-6.5-.3-15.4-.3-19.9v-8.1l21.7-.2h43.6l21.8.2-.1 11.6-.4 20-.2 8.2-2.2.2c-2.2.3-79.7.2-82.2 0zM279.6 564.9a32.5 32.5 0 0 1-8.2-17.3l-.4-2 5.1-20-.2-34.2.4-.7c.5-1 1.9-2.4 2.8-2.9.7-.3 1-.3 14.2-.3 12.7 0 13.5 0 14.2.3.9.4 2 1.6 2.7 2.7l.4.8v17l-.2 17.1 5.2 20.2-.4 1.8a40 40 0 0 1-3.3 10.3 26.4 26.4 0 0 1-4.7 7l-1.5 1.5H281l-1.3-1.3zM278 464.2v-10h30.8v20h-30.9v-10zM275 464.2v-10H276.8v20H275v-10zM309.9 464.2v-10h1.6v20h-1.6v-10zM197 280.6v-8.3H230V289h-32.8v-8.4zM197 304.6v-14.1H230V318.8h-32.8v-14.2zM231.5 304.9V272l3 3.5v58.6l-3 3.5V305zM197 327.6v-7.3H230v14.6h-32.8v-7.3zM193.9 335.7l-1.4-1.7v-58.4l3-3.5v32.7l-.1 32.7c-.1 0-.8-.8-1.5-1.8zM236.5 323.7v-5.6l1.7 1.7c1.8 1.7 1.8 1.8 1.8 5.6v4h-3.5v-5.7zM250.6 303.2l-.3-2-.3-1.1h17c16 0 17 0 16.9.9-.2.8-1.6 1-13 1.7l-16.6 1.1c-3.3.3-3.7.2-3.7-.6zM318.3 303c-13.8-1-15.4-1.2-15.6-2-.1-.8 1-.9 16.6-.9H336v2c0 1.8-.2 2-1.2 2l-16.5-1.2zM297.4 305.6a22 22 0 0 1-.3-3.6c0-1.9 0-2 2-2h2v7.2h-1.7c-1.5 0-1.7-.2-2-1.6zM288 253.5c0-2.1.2-2.8 1.4-4 1.1-1.2 1.7-1.4 4-1.4 3.5 0 4.7 1.3 4.7 5.2v2.9H288v-2.7zM285 303.6v-3.5h4.5v2c0 1-.1 2.6-.3 3.5-.3 1.4-.5 1.6-2.3 1.6h-2v-3.6zM331.3 310.9c.4-.2.8-.2 1 0 .2.2-.1.3-.7.3-.5 0-.7-.2-.3-.3zM319.7 305.8l-16.5-.9h-.5V303h.7a2763.9 2763.9 0 0 0 32.1 2.2l.8.1v.7c0 .6 0 .7-.3.7l-16.3-1z"/>
        <path d="M309.4 309.6v-1.1l7.6-.1 13.4-.2h6v2.5h-6l-13.5.1h-7.5v-1.2zM356.3 280.6v-8.4h33.4V289h-33.4v-8.5zM390.9 305.1v-33.3l1.7 1.9 1.7 1.8v58.6l-1.6 2-1.7 2.1c-.1.2-.2-5-.2-33zM353.4 336.2l-1.6-2v-58.8l3.3-3.6v66.5l-1.6-2zM356.3 304.7v-14.4h33.4v28.9h-33.4v-14.5zM356.3 327.7v-7.4h33.4v14.8h-33.4v-7.4zM356.3 337.9v-1.7h33.4v3.3h-33.4v-1.6zM197 337.8v-1.6h33.2v3.2H197v-1.6zM250.3 306.5l-.1-.7c0-.4 0-.5.4-.5a2952.9 2952.9 0 0 0 32.9-2.1h.4v1.6h-.7a5752.3 5752.3 0 0 1-33 1.7zM262.1 310.8h-11.8v-2.6h9.6l13.4.2h4v2.5h-1.7l-13.5-.1zM247.5 309.9l-.4-60v-8.2h1l.1 2.6a6349 6349 0 0 1 1 62.3v4.3H247.5v-1zM337.4 308.5a9104.6 9104.6 0 0 1 1-64.9v-1.9h1.1v5.8a7231.8 7231.8 0 0 1-.4 58.1v5.3H337.4v-2.4zM192.3 691v-1.6l7.3.1h23.9v3h-31.2V691zM224.6 658.3v-33.5l2.5 3.4V675l-.1 14-1.2 1.4a23 23 0 0 1-1.1 1.3v-33.5zM210.2 626.4h-17.9v-2.7h31.2v1.4c0 .8 0 1.5-.1 1.4h-13.2zM189.9 690.4l-1.3-1.5v-40.6l-.1-20 2.7-3.7V692l-1.3-1.5zM199.5 642.4h-7.2v-15l7.3.1h23.9v15H215l-15.6-.1zM202.4 670.4h-10.1v-26.9h20.2l11 .2v26.8h-21.1zM209.6 688.4h-17.3v-16.9h8.9l15.6.1h6.7v17h-.4l-13.5-.2zM228.2 675.4v-7.7l2.4 1.9 2.3 1.8V683H228.2v-7.6z"/>
        <path d="M235.3 683H234v-12.2l-3-2.2a18.7 18.7 0 0 1-2.8-2.5 1427.6 1427.6 0 0 0 7 5.1l1.7 1.2v10.7h-1.7zM394.2 691v-1.6l-7.3.1H363v3h31.2V691zM361.9 658.3v-33.5l-1.3 1.7-1.3 1.7v16.4l.1 30.4.1 14 1.1 1.4a23 23 0 0 0 1.2 1.3v-33.4zM376.3 626.4h17.9v-2.7H363v1.4c0 .8 0 1.5.1 1.4h13.2zM396.6 690.4l1.2-1.5v-10.3l.1-30.3.1-20-2.7-3.7V692l1.3-1.5zM387 642.4h7.2v-15l-7.3.1H363v15h8.4l15.6-.1zM384 670.4h10.2v-26.9H374l-11 .2v26.8h21.1zM376.9 688.4H394v-16.9h-8.8l-15.6.1H363v17h.4l13.5-.2zM358.3 675.4v-7.7l-2.4 1.9-2.4 1.8V683h4.8v-7.6z"/>
        <path d="M351.2 683h1.2v-12.2l2.9-2.2 2.9-2.5a1427.6 1427.6 0 0 1-7 5.1l-1.7 1.2v10.7h1.7z"/>
        <path d="m243.5 308-2.4-2.2-2.2-.2c-1.2 0-2.3-.2-2.3-.2l-.2-5-.2-5h9.9v7.4l-.1 7.4-2.5-2.2zM265.2 328.4 248 312l30.5-.1v-3.3h5c3.4 0 4.9.1 4.9.3 0 .7-5.4 34.7-5.6 35.2-.1.3-3.2-2.4-17.5-15.8zM303.6 343.8l-5.5-35h9.8l.2 1.6.2 1.6 30.2.1-17.2 16.2-17.4 16.2c-.1 0-.3-.3-.3-.7zM340.3 303v-7.7h9.9v10l-1.4.2-2.4.2c-1 0-1.2.1-3.6 2.4l-2.5 2.4V303z" opacity=".8"/>
        <path d="M257.9 326.2a2628 2628 0 0 1-20-19.4h1.3l1.3.2 20.4 19a2093 2093 0 0 1 20.2 19.2l-1.6.2-1.5.2-20.1-19.4zM254.8 328.2l-18.2-17.5-.1-3.4 3.4 3.4 19.8 19.1c9 8.6 16 15.7 15.9 15.7l-1.4.1-1.1.1-18.2-17.5zM252.2 330.8l-15.7-15.1v-3.3l2.3 2.3a63468 63468 0 0 0 32.3 31l-1.6.1h-1.6l-15.7-15zM253.4 338l-9.4-9.2.1-2V325l22 21-1.5.7-1.6.7s-4.4-4.1-9.5-9.2zM241.7 333.6l-.2-7v-4.4l.6.7c.6.6.6.7.8 6.1l.2 5.6-1.2 1.5-.2-2.5zM251.4 341l-7-6.9V333l-.2-1.6c-.4-.9.7.1 9 8.3l8.2 8.3h-2.8l-7.2-6.9zM306.4 345.4l-1.3-.2 40.7-38.1 1.4-.2h1.4a2381 2381 0 0 1-40.6 38.6l-1.6-.1zM311.8 345.6l-1.3-.1 18.7-18.1 19.8-19 1.1-1v3l-18 17.4a1889 1889 0 0 1-18.6 17.7c-.2 0-1 .2-1.7 0zM315.6 345.4l34.5-33v1.7l-.3 1.7-31.2 30h-1.7c-1.6 0-1.7 0-1.3-.4zM346 325.3v-4.1l1.8-1.7 1.9-1.7c.1 0 .2 2.6.2 5.8v5.8H346v-4zM321.8 346.6l-1.4-.7 21.8-21 .1 3.9-9.3 9.3-9.6 9.2-1.6-.7zM329.7 343.2l8.6-8.5 4-3.8v3l-14.4 14H325l4.7-4.7zM344 335.4c-.4-.6-.4-1.4-.4-6.2v-5.5l1.2-1.2v6.2l-.2 6.8-.2.6-.4-.7z" opacity=".8"/>
        <path d="m249 356-14.4-3.6c0-.1 2-.9 4.5-1.7l4.6-1.6h18.5l4-1.8 7-.3 7.1-.3c.2.1-16.6 12.8-16.8 12.7l-14.6-3.4zM314.2 353a569 569 0 0 1-8.2-6.3s3.2 0 7.1.3l7.1.3 4 1.8h18.7l4.7 1.6c3 1.1 4.5 1.7 4.2 1.8l-29.1 7-8.5-6.4zM280.6 752.7c-7.5-2.7-8.4-3.3-8.4-5.7 0-16.3-8.3-191.2-9.2-193.1-.7-1.6-1.4-18.4-2-46.7l-1-44 18.2-41.8 3.1-38.5a761 761 0 0 1 9.8-79.3c.4-2.3 1.1-3.3 2.4-3.3 1.4 0 1.9 1 2.3 4.8.2 2.7 1.8 13.2 3.5 23.5 2 12.2 4 31.5 5.8 55L308 420l18.4 43.5-.7 40.4c-.5 22.2-1.3 42.9-1.9 46s-3 49-5.4 102.2a2730 2730 0 0 1-5.2 97.6A64.5 64.5 0 0 1 293 756c-2.3 0-7.8-1.5-12.4-3.2zm28.6-188c7.4-8.7 8.7-17 5-31.2a67.5 67.5 0 0 1-2.3-26.8c.6-21.7 1.8-20.5-19-20.5-20 0-18.6-1.5-18.6 22 0 15.4-.3 18.8-2.6 27.5A38.7 38.7 0 0 0 270 549c1 4.8 4.1 12 7 15.7l2.5 3.3h27l2.8-3.3zm3.5-100.2v-11.6h-39.4V476h39.4v-11.6z" opacity=".8"/>
        <path d="M348 523a151.4 151.4 0 0 0-20-4c-1.1.4-1.3-.2-.8-2.7.3-1.9.6-15 .7-29.2v-25.9L310.4 421l-2.8-34.3-2.9-36.7c0-2 1-1.6 8.7 4.5l8.7 6.8 14.2-3.3 15.5-3.8c1.7-.7 2 2 3.9 33.4 1.4 24.2 1.9 27.9 4.2 33.8 7.5 20 10.4 42.1 10.4 79.7 0 24.6 0 26.5-1.7 26.4-1 0-10.2-2-20.5-4.5z" opacity=".8"/>
        <path d="M369 447.3a181 181 0 0 0-7.8-28.2c-1.6-3.6-2.3-9.6-3.5-30l-2.2-31.8-.5-6.1-5.4-1.7c-3-1-8.4-1.7-12.3-1.7h-7l12-11.4 2.6 3.4 4.2 5.3c1.2 1.5 4 2.3 11 3.4 5.2.7 9.6 1.5 9.8 1.7s.2 23.2 0 51.2c0 30.3-.5 49-1 46zM216.1 510.7a246 246 0 0 1 11-90.7c2.1-6.2 2.6-10.6 4.2-36.3a930 930 0 0 1 2-29.6c.1-.1 6.7 1.4 14.6 3.3 7.9 2 15 3.5 15.7 3.5.7 0 5.1-2.9 9.7-6.5s8.5-6.4 8.6-6.3l-2.7 36.2-2.9 36-18.4 42.1.8 28c.4 15.5.4 28.1 0 28.1-.3 0-9.6 2-20.7 4.6l-20.6 4.5c-.3 0-.8-7.6-1.3-17z" opacity=".8"/>
        <path d="M215.8 403.1c0-29.3 0-53.3.3-53.3 1.1 0 16.5-2 18.3-2.5 1.2-.3 3.7-2.7 5.6-5.5a26 26 0 0 1 4-5.1c.3 0 3 2.5 6 5.5l5.5 5.6H249c-5.8 0-15.4 2.2-17.2 4-.4.3-1.4 14-2.4 30.3-1.7 29.8-1.7 29.9-5.6 41.5-3.2 9.9-5.6 19.6-7.3 30.3-.3 1.4-.5-21.5-.6-50.8zM240.8 545.7v-3.2H257v6.5h-16v-3.3zM256.7 564.3a2585 2585 0 0 0-7-12.1l-1-1.7 7 .3 6.9 11 .3 6.5a40 40 0 0 1 0 6.5c-.1 0-3-4.7-6.2-10.5zM323.5 568.7l.3-6.8 7.1-11.4h3.2c1.8 0 3.2.2 3.2.3 0 .3-13.6 24-14 24.5l.2-6.6zM329.7 545.7v-3.2h15.7v6.5h-15.7v-3.3zM364.6 753.7v-3.1l-49 .6.3-6c.1-3.3.3-7.4.5-9.2l.3-3.1h13.9l4.4-6.7c2.5-3.7 5.1-7.6 6-8.6l1.4-1.9h11.7l12.8-5.9c12-5.5 12.9-6 13.2-7.4.4-1.5.6-1.6 2.9-1.8l2.4-.1-.3 4.4c-.2 2.5-.4 12-.6 21.2-.1 9.1-.4 18.8-.5 21.5l-.3 4.9-5.7 3.9-13.4.5v-3.2zM215 756.6c-6.3-.2-6.3-.2-9.3-2.2l-3.1-2-.3-11.4-.7-26-.3-14.4h2.3c2.2 0 2.3 0 2.6 1.6.3 1.6.7 1.8 13.2 7.6l12.9 5.9h5.8c4.9 0 5.9.1 6.6 1 .5.4 3.2 4.3 6 8.5l5 7.7h14.4v2.6l.4 9.2.3 6.5-48.7-.6v3.2c0 1.8-.1 3.3-.3 3.2l-6.7-.4zM259.8 673.7c-9.5-1-18.2-3.3-26.2-7.1l-5.4-2.6v-7.2c0-4 .1-7.5.3-8s1.4-1.5 2.7-2.4c5.5-3.8 10.6-8.4 21.9-19.8l12-12.2v5.2l.2 6.5c0 1.2-.8 1.9-7 5.9-12.6 8-27.3 19-27 20.3.2.3 1 .5 2 .4 2.4-.3 30.8-4.1 32.2-4.5 1-.2 1.1 0 1 2l-.2 2.1-13 1.7c-7.3.9-15.3 1.6-17.9 1.6-3.5 0-4.7.2-4.7.7 0 .8 11 1.8 25.6 2.2 11.5.3 10.8 0 10.8 4.4v2l-4.7-.4-16-.8a349 349 0 0 1-13.3-.8c-1.4-.2-1.9 0-1.9.5 0 .4.5.9 1.2 1l6.4 1.6c6.4 1.5 16.7 3 23.3 3.5l4.9.3.3 1.6c.7 3.2.8 3.2-7.5 2.3zM319.1 672.1V670l5-.4 10.4-1c5.6-.9 20.3-4 20.8-4.5.7-.7-.6-1.3-2.2-1l-13 .7-15.8.8-4.7.3v-6.2h6.7c3.7 0 11.3-.3 16.8-.7l11.2-.8c.7 0 1.2-.3 1.2-.7 0-.6-1-.8-4.7-.8-2.6 0-10.5-.7-17.5-1.6l-13-1.7v-2.1c-.2-2.1-.2-2.2 1.2-1.9 6.4 1.2 33.3 4.6 33.7 4.3.5-.5-.5-1.4-8.3-7.5a339.2 339.2 0 0 0-23.4-16l-2.4-1.5v-3.9c0-2 .2-4.9.4-6.2l.3-2.4 12.4 12.4a146 146 0 0 0 22 19.5l1.8 1.1v16l-4.7 2.3a86 86 0 0 1-30 7.6l-4.2.4V672z" opacity=".8"/>
    </g>
    <path fill="#d20404" d="M227.6 355.9v-3.3l19.8-7.8h85.9l12.8 3 13.1 3c.2.3 1.5 7.4 1.4 7.6-.2.1-103.9.8-123.8.8h-9.3l.1-3.3z"/>
    <rect width="154.2" height="177.9" x="216" y="351.3" fill="#d20404" ry=".7"/>
    <rect width="58.8" height="55.2" x="263.9" y="494.1" fill="#fff" ry=".3"/>
    <rect width="53.7" height="55.2" x="266.6" y="505.9" fill="#fff" ry=".3"/>
    <rect width="49.6" height="55.2" x="268.6" y="515.9" fill="#fff" ry=".3"/>
    <rect width="33.3" height="71.1" x="361.9" y="622.4" ry="1.7"/>
    <path fill="#303030" d="m360.8 690.4-1.2-1.4v-14l-.2-30.4v-16.3l2.6-3.6v67.2l-1.2-1.5zM395.2 658.3v-33.6l1.4 1.8 1.3 1.8v14.4l-.2 30.3v16l-1.2 1.4-1.2 1.5-.1-33.6z"/>
    <path fill="url(#i)" d="M361.9 686.3v-7.2l12-.1 16.7-.2h4.7v14.7h-33.4v-7.2z"/>
    <path fill="url(#j)" d="M362.1 631.3v7.2l11.8.2 16.5.1h4.6v-14.7H362v7.2z" opacity=".7"/>
    <path fill="url(#k)" d="m360.7 690.3-1-1.4v-2.4l1 .9 1.1.9v3.3l-1-1.3z" opacity=".6"/>
    <path fill="url(#l)" d="m360.6 627-1 1.3v2.4l1.1-.9 1-.9v-3.3l-1 1.3z" opacity=".6"/>
    <path fill="url(#m)" d="M360.5 664.1c-.5-1-.7-1.5-.8-1.4s0-2 0-4.5v-4.4l.7-3 .8-3.1v18l-.7-1.6z" opacity=".3"/>
    <path fill="url(#n)" d="m396.7 690.3 1-1.4v-2.4l-1 .9-1.1.9v3.3l1-1.3z" opacity=".6"/>
    <path fill="url(#o)" d="m396.8 627 1 1.3v2.4l-1.1-.9-1-.9v-3.3l1 1.3z" opacity=".6"/>
    <path fill="url(#p)" d="M396.9 669.3a14.5 14.5 0 0 1 .8-1.7v-10.4l-1.5-7V671l.7-1.7z" opacity=".3"/>
    <path fill="url(#q)" d="M361.9 687.1v-2.7h12l16.7-.1h4.7v5.6h-33.4V687z"/>
    <path fill="url(#r)" d="M362 629v2.8H395v-5.5H362v2.7z"/>
    <rect width="33.3" height="71.1" x="-224.6" y="622.4" ry="1.7" transform="scale(-1 1)"/>
    <path fill="#303030" d="m225.7 690.4 1.2-1.4v-14l.2-30.4v-16.3l-2.6-3.6v67.2l1.2-1.5zM191.3 658.3v-33.6l-1.4 1.8-1.3 1.8v14.4l.2 30.3v16l1.2 1.4 1.2 1.5.1-33.6z"/>
    <path fill="url(#s)" d="M224.6 686.3v-7.2l-12-.1-16.7-.2h-4.7v14.7h33.4v-7.2z"/>
    <path fill="url(#t)" d="M224.4 631.3v7.2l-11.8.2-16.5.1h-4.6v-14.7h32.9v7.2z" opacity=".7"/>
    <path fill="url(#u)" d="m225.8 690.3 1-1.4v-2.4l-1 .9-1.2.9v3.3l1.2-1.3z" opacity=".6"/>
    <path fill="url(#v)" d="m225.8 627 1.1 1.3v2.4l-1.1-.9-1.1-.9v-3.3l1.1 1.3z" opacity=".6"/>
    <path fill="url(#w)" d="M226 664.1c.4-1 .7-1.5.8-1.4s0-2 0-4.5v-4.4l-1.5-6.1v18l.7-1.6z" opacity=".3"/>
    <path fill="url(#x)" d="m189.8 690.3-1-1.4v-2.4l1 .9 1.1.9v3.3l-1.1-1.3z" opacity=".6"/>
    <path fill="url(#y)" d="m189.7 627-1 1.3v2.4l1.1-.9 1-.9v-3.3l-1 1.3z" opacity=".6"/>
    <path fill="url(#z)" d="M189.6 669.3a14.5 14.5 0 0 0-.8-1.7v-10.4l.7-3.5.8-3.6V671l-.7-1.7z" opacity=".3"/>
    <path fill="url(#A)" d="M224.6 687.1v-2.7h-12l-16.7-.1h-4.7v5.6h33.4V687z"/>
    <path fill="url(#B)" d="M224.4 629v2.8h-32.8v-5.5h32.8v2.7z"/>
    <rect width="38.6" height="70.9" x="353.6" y="269.7" ry="1.7"/>
    <path fill="#303030" d="m352.2 337.5-1.4-1.5v-14l-.2-30.2v-16.3l3-3.6v67l-1.4-1.4zM392 305.4V272l1.6 1.9 1.5 1.7V290l-.2 30.2V336l-1.4 1.4-1.4 1.5v-33.5z"/>
    <path fill="url(#C)" d="M353.5 333.4v-7.2l13.9-.2 19.3-.1h5.4v14.6h-38.6v-7.1z"/>
    <path fill="url(#D)" d="M353.7 278.5v7.2l13.7.2 19 .1h5.4v-14.6h-38v7.1z" opacity=".7"/>
    <path fill="url(#E)" d="M352.1 337.3 351 336v-2.5l1.3.9 1.2.9v3.3l-1.3-1.3z" opacity=".6"/>
    <path fill="url(#F)" d="m352 274.2-1.2 1.3v2.5s.7-.4 1.3-1l1.3-.8v-3.4s-.7.6-1.3 1.4z" opacity=".6"/>
    <path fill="url(#G)" d="m351.9 311.3-.9-1.5-.1-4.4v-4.5l1.8-6v17.9l-.8-1.6z" opacity=".3"/>
    <path fill="url(#H)" d="m393.8 337.3 1.2-1.3v-2.5l-1.3.9-1.2.9v3.3l1.3-1.3z" opacity=".6"/>
    <path fill="url(#I)" d="m393.8 274.2 1.3 1.3v2.5s-.7-.4-1.3-1l-1.3-.8v-3.4l1.3 1.4z" opacity=".6"/>
    <path fill="url(#J)" d="m394 316.4.9-1.8v.1l.1-5.2v-5.1l-.9-3.6-1-3.5V318l.9-1.7z" opacity=".3"/>
    <path fill="url(#K)" d="M353.5 334.2v-2.8h13.9l19.3-.1h5.4v5.6h-38.6v-2.7z"/>
    <path fill="url(#L)" d="M353.7 276.3v2.7h13.7l19 .1h5.3v-5.6h-38v2.8z"/>
    <rect width="38.6" height="70.9" x="-233" y="269.7" ry="1.7" transform="scale(-1 1)"/>
    <path fill="#303030" d="m234.4 337.5 1.4-1.5v-14l.2-30.2v-16.3l-1.5-1.8-1.5-1.8v67l1.4-1.4zM194.6 305.4V272l-1.6 1.9-1.6 1.7.1 14.4.1 30.2V336l1.4 1.4 1.5 1.5v-33.5z"/>
    <path fill="url(#M)" d="M233.1 333.4v-7.2l-13.9-.2-19.3-.1h-5.4v14.6H233v-7.1z"/>
    <path fill="url(#N)" d="M232.8 278.5v7.2l-13.7.2-19 .1h-5.3v-14.6h38v7.1z" opacity=".7"/>
    <path fill="url(#O)" d="m234.4 337.3 1.3-1.3v-2.5l-1.3.9-1.3.9v3.3l1.4-1.3z" opacity=".6"/>
    <path fill="url(#P)" d="m234.5 274.2 1.3 1.3v2.5l-1.4-1-1.2-.8v-3.4l1.3 1.4z" opacity=".6"/>
    <path fill="url(#Q)" d="m234.7 311.3.9-1.5v-4.4l.1-4.5-1-3-.8-3v17.9l.8-1.5z" opacity=".3"/>
    <path fill="url(#R)" d="m192.8 337.3-1.3-1.3v-1.3l.1-1.2 1.3.9 1.2.9v3.3l-1.3-1.3z" opacity=".6"/>
    <path fill="url(#S)" d="m192.7 274.2-1.2 1.3v2.5l1.3-1 1.2-.8v-3.4l-1.3 1.4z" opacity=".6"/>
    <path fill="url(#T)" d="m192.6 316.4-1-1.8v.1-10.3l.9-3.6 1-3.5V318l-1-1.7z" opacity=".3"/>
    <path fill="url(#U)" d="M233.1 334.2v-2.8h-13.9l-19.3-.1h-5.4v5.6H233v-2.7z"/>
    <path fill="url(#V)" d="M232.9 276.3v2.7h-13.7l-19 .1H195v-5.6h38v2.8z"/>
    <path d="m286.5 566-5.9-.2-1.5-1.7c-2-2.2-3-3.7-4.2-6.3a44.6 44.6 0 0 1-3.7-12.5 58.5 58.5 0 0 0 1-4l2.5-9.4 1.6-6.5-.1-16.7v-17.3c.2-.8 1.4-2.4 2.5-3.1.8-.6.8-.6 10.6-.7 16.5 0 17.6 0 18.6.7.5.3 1.2 1 1.7 1.7l.8 1.1v34.7l1.5 6a218.1 218.1 0 0 0 3 10.7c-.1.1 0 .9.2 1.7.2.8.3 1.8.2 2.2a80.8 80.8 0 0 1-2.6 9.2c-1 2.6-2.8 5.5-4.4 7.5-2.5 3-1.6 2.8-9.3 3l-12.5-.1zM278 463.6v-10.4h30.6V474h-30.5v-10.4z"/>
    <path fill="#ff0" d="M308.6 463.6V453h4.1V474h-4v-10.4zM273.5 463.5V453h4.6v21h-4.6v-10.5z"/>
    <path d="m227.1 674.5.1-8.6 4.3 3.2 4.3 3.3V683H227l.1-8.5z"/>
    <path fill="#fff" d="m233.1 683-.3-.1v-12l-2.6-2.1-2.5-2.1 4 2.8 4 3V683H233z" opacity=".5"/>
    <path d="M350.8 677.7v-5.3l4.3-3.3a226 226 0 0 1 4.3-3.2l.1 8.6.1 8.5h-8.8v-5.3z"/>
    <path fill="#fff" d="m353.5 683 .3-.1v-12l2.6-2.1 2.5-2.1-4 2.8-3.9 3V683h2.5z" opacity=".5"/>
    <path d="M236.4 328.5v-11.1l4 4.2v8h-3.9v-1zM346.2 325.6v-4l3.9-4.2v.5l.1 6v5.7h-4v-4z"/>
    <path fill="#fff" d="M344.3 335.9a6 6 0 0 1-.7-1.2c-.1-.4 0-9.4.1-10.1 0-.2.4-.7.7-1.1l.7-.7v5l-.1 6.9-.1 2-.6-.8zM241.6 334.7l-.1-7v-5l1.4 1.6v2.9l.2 5.1.1 2.3-.7 1-.8 1.2v-2z"/>
    <path fill="#ccc" d="M247.4 299a9557.4 9557.4 0 0 0-.4-46v-11.4h1.2v2.3l.3 15 .3 20a983.9 983.9 0 0 1 .3 22.2l.1 8.4v1.4H247.5V299zM337.4 305.1a16798.9 16798.9 0 0 0 .8-62.5v-1h1.4v5.9l-.2 25.2-.4 38.1H337.3l.1-5.7z"/>
    <path d="M288 255.1v-3l1.4-1.4 1.4-1.4h5l2.8 2.8v6H288v-3zM340.1 305.5l.1-7.8.1-2.5h4.1l5-.2h1v1.8l-.1 5.4-.1 3.5h-2l-2.4.1-2.7 2.3a365 365 0 0 1-2.7 2.4l-.3.3v-5.3zM246.2 310.7l-3.5-3.1-2-1.8H236v-.9a582.3 582.3 0 0 1 .1-9.2v-.5h10.1l.1 2.6v13l-.2-.1zM250.2 302.9V300l9.4-.1 17-.1h7.3v1.1c0 .8 0 1.2-.2 1.2a4715 4715 0 0 0-33 2.1c-.3 0-.4-.1-.5-1.3zM318.9 303.1l-15.7-1h-.6v-2.4h6.4l16.9.2h10.5V304.3h-1.2l-16.3-1z"/>
    <path fill="#cbcbcb" d="M250.1 306c0-.3.1-.6.3-.6l33.3-2.3c.1 0 .2.4.2 1 0 .7 0 .8-.4.8a3651.8 3651.8 0 0 0-32.7 1.8c-.6 0-.7 0-.7-.6zM318.3 305.8l-15.5-1c-.1-.1 0-1.5 0-1.6l16.4 1 16.7 1c.4 0 .5.1.5.8v.7H335l-16.7-1z"/>
    <path d="m268.5 307.3-5.2-.1 8.8-.5 10.3-.6 1.5-.1v1.4h-5l-10.4-.1zM302.6 307c0-1-.5-1 10.5-.4l10.2.6h-6l-10.3.2h-4.4v-.5zM297 303.6l-.3-4h2.4l2.5.2v7.9h-4.2l-.4-4zM285 303.7v-4h4.9l-.3 3.7-.4 4c0 .2-.5.2-2.1.2h-2.2v-3.9z"/>
    <path fill="#544a41" d="M263 310.8h-12.6V308l8.5.2 13.4.1h4.8v1.3c0 1.2 0 1.3-.7 1.2l-13.3-.1zM309.5 309.6v-1.2h4.8l13.4-.1 8.5-.2v2.6H309.5v-1.1z"/>
    <path fill="#fff" d="M267.4 298.4H250V294a2168.6 2168.6 0 0 0-.3-19.3v-16.5h1.5l1.5-.1.2-.2c0-.1 7-.2 40.7-.2 29.6 0 40.6 0 40.7.2a9 9 0 0 0 2.4.3v6.7a414.5 414.5 0 0 0 0 13.6 7419.8 7419.8 0 0 0-.3 17v2.9h-69.1zm43.6-.1h-.2c-.1 0 0 0 0 0h.2zm5.2 0h-.2c-.1 0 0 0 0 0h.2z"/>
    <path d="m266 674.5-3.8-.4a81.2 81.2 0 0 1-30.6-8.3l-3.3-1.7v-16l2.4-1.6c6.4-4.3 12.6-10 24.5-22.3l8.7-8.9 1.2-1 .1 5.2.3 6.6.2 1.4-3.9 2.4a281 281 0 0 0-21.8 14.9c-3 2.3-8.4 6.7-8.6 7.1-.1.2 0 .4.2.6.3.3 3.3 0 17.4-2 9.5-1.4 17.2-2.4 17.3-2.3.2.2.4 4.2.3 4.2l-14.5 1.8a98.6 98.6 0 0 1-17.7 1.6l-3.4-.1v.6c0 .5.2.6.7.6l9 .7c11.7.8 20 1.2 23.3 1l2.8-.1.2 2 .1 3.2v1H266c-2.6 0-33.3-1.7-33.9-1.8-.5-.2-.7-.1-.8.4 0 .6 0 .6 2.7 1.3a147.8 147.8 0 0 0 33.3 5.2l.3 2.5c.2 2.5.3 2.3-1.5 2.1zM319 672.2v-2.4h1l5.3-.5a128 128 0 0 0 30-5.6c0-.8-.4-1-1.8-.7-1.4.3-34 2-34.2 1.7v-3l.2-3.1h6.4a1551.5 1551.5 0 0 0 29.6-1.7l-.1-.7c-.1-.5-.2-.5-3.3-.4-3 .2-4.2 0-17.7-1.6l-14.6-1.9.1-2.1c0-1.4.2-2.1.4-2.1l33.7 4.7c.6 0 .8 0 1-.3.2-.4 0-.8-1.7-2.1a233 233 0 0 0-27.5-19.8l-4.7-2.9v-5.6l.3-6.7.2-1 2.3 2.3 10.3 10.5a133.4 133.4 0 0 0 22 19.6l1.9 1.3v16l-2.5 1.4a80.6 80.6 0 0 1-35.5 9l-1.2.1v-2.4zM215.7 405.6l-.1-56 20.2-2.8 4.1-5.5 4-5.4 12 11.4-6.4.2c-5.7.2-7 .5-12.3 2.3l-6 2v2.3l-2 31.3-1.8 29-2.2 5.6c-4 10.1-7.2 23.3-8.8 35.9-.6 5-.7.1-.7-50.4zM370 456.1a159.2 159.2 0 0 0-10-39.1c-1-2.4-1.2-5.2-3-33.8l-2.1-31.4-6.1-2.2c-5.8-2-6.2-2-12.1-2.1h-6.2l12-11.8 8 11.2 10 1.3 10 1.5a5957.6 5957.6 0 0 1-.5 106.4z"/>
    <path d="m249.1 356-14.6-3.6 4.6-1.7 5-1.8h18.6l1.8-.8c1.7-.8 1.8-.8 6-1l7.1-.3 3-.2-8.5 6.5-8.6 6.4-14.4-3.5zM314.4 353.2c-4.5-3.5-8.2-6.4-8.1-6.5l6.8.2 6.8.3 4 1.7h18.5l10 3.5-14.6 3.5-14.8 3.6c-.2 0-4-2.8-8.6-6.3zM265.3 328.4 248 312.2l1.4-.2h15.2l13.8.2v-3.6l4.9.1 5 .3s-5.3 34.7-5.6 35.2c-.1.3-3.7-3-17.4-15.8zM303.5 343.7l-5.3-34.8 4.9-.2 4.8-.1.1.7.2 1.8v1h13.7c7.5-.2 14.3-.1 15.1 0l1.5.1-16.3 15.3-17.4 16.2-1.1 1-.2-1zM257.8 326.1l-20-19.2h2.5l20.1 18.8 20.5 19.1.6.6h-3.7l-20-19.3zM251.4 341l-7-6.8v-1.6l-.1-1.7 8.4 8.3 8.5 8.4h-2.9l-7-6.7zM253.4 338l-9.4-9.2.2-4 10.9 10.5c6 5.8 10.8 10.6 10.7 10.7l-1.6.8-1.3.6-9.5-9.3z"/>
    <path fill="#cbcbcb" d="m254.8 328.2-18.2-17.5V309l-.2-1.6 1.8 1.7 37.7 36.2c.3.3 0 .4-1.3.4H273l-18.2-17.5zM310.5 345.6l16.2-15.8c9-8.5 17.8-17.2 19.8-19.1l3.6-3.5-.1 3.4-36.6 35H312a6 6 0 0 1-1.4 0z"/>
    <path d="M333.4 339.6c4.4-4.5 8.3-8.3 8.5-8.4.3-.2.4 0 .4 1.3v1.5L328 347.7h-2.8l8.2-8.1zM322 346.7l-1.4-.9 10.8-10.5 10.8-10.3v2l.1 1.8-2.5 2.5a1072 1072 0 0 1-9.4 9.3l-7 6.7-1.4-.6zM315.3 345.8l15-14.6 17.5-16.7 2.3-2.2v3.2L318.5 346h-3.2zM306.3 344.2l20.6-19.3 19.3-18.1h2.5l-1.4 1.3-20 19.4-18.6 18H305l1.3-1.3zM252.3 330.9l-15.7-15.1-.2-3.3.9.7a10021.7 10021.7 0 0 1 33.5 32.1l.6.6H268l-15.6-15z"/>
    <path fill="#d20404" d="M280.7 752.6c-7-2.7-7.5-3.1-8.2-8.8-.4-3.2-2.4-47-4.4-97.3-2.1-50.3-4.3-92-5-92.9-.5-.7-1.4-21.4-2-45.8l-1-44.5 18.4-42.5 3-38.6c2.7-32.8 4.8-49.5 9.8-77.5.4-2.5 1.2-4.6 1.8-4.6 2.9 0 9.2 45.4 12.3 87.8l2.4 32.9 18.5 42.6-1 44.4c-.6 24.4-1.6 45-2.2 45.8-.6.8-2.8 43.9-4.9 95.8-2.1 51.8-4.1 95.6-4.4 97.2-.4 2.2-3 4-8.6 6.1a28.2 28.2 0 0 1-24.5 0zM296 634.3c0-1.5-1-2.8-2.1-2.8-2.2 0-3 3-1.2 4.8 1.8 1.8 3.3.9 3.3-2zm0-17.8c0-1.2-1-2.1-2.1-2.1s-2.2 1-2.2 2 1 2.2 2.2 2.2 2-1 2-2.1zm0-22.1c0-1.6-1-3-2.1-3-2.2 0-3 3.1-1.2 4.9 1.8 1.8 3.3.9 3.3-2zm12.9-31.1c1.4-1.8 3.7-6.2 5-9.8 2.4-6.1 2.4-7.1.2-16.8-1.6-6.8-2.4-16.4-2.4-28.8 0-12.7-.5-19.2-1.7-20.4-2.4-2.4-32-2.4-33.6 0-.6 1-.9 9.2-.6 18.3.4 13.2-.1 18.7-2.6 28.2-3.4 13.5-2.8 18.6 3.6 28l3.8 5.5 12.8-.5c11.3-.4 13.2-.9 15.5-3.7zm4.2-99V453h-40v22.9h40v-11.5zM329.4 545.7v-3.4h16v6.8h-16v-3.4zM323.1 574.6l.4-7.1.2-5.7 7.3-11.6h7l-7.2 12.5-7.5 13c-.2.2-.3-.2-.2-1.1zM256 563.3l-7.2-12.8c-.1-.2 1.3-.4 3.2-.4h3.4l3.6 6 3.7 5.8.3 6.8.3 7-7.3-12.4zM240.8 545.7v-3.4H257v6.8h-16v-3.4z"/>
    <path fill="#fff" d="M209.3 756.7c-.4-.1-2.1-1.1-3.8-2.3l-3-2-.5-20-.7-26.1-.2-6.2h4.6l.5 1.9.5 1.8 25.4 11.8 12.5.3 11 16.7H270l.3 6.2.4 9.3.2 3.2-23.5-.3-24.4-.3c-.9 0-.9 0-1 3.1l-.1 3.1h-6a78 78 0 0 1-6.6-.2zM364.4 752.9c0-2.9-.6-3-24.3-2.5-27.2.4-25 1.4-23.4-10.8l1-6.7h6.6c6.6 0 6.9-.2 12.4-8.2 5.5-8 5.8-8.2 13.4-9 8.9-1 29.1-9.8 30.5-13.4.5-1.2 1.6-2.2 2.5-2.2 1.3 0 1.5 6.7 1 25.9-.8 29.6-.8 29.8-12.8 29.8-6 0-6.9-.4-6.9-3z"/>
    <path d="m259.8 529-18.8-.4c-10.3-.1-18.7-.3-18.5-.4a2071.6 2071.6 0 0 1 36.3-8.2c.3-.3.8-.3.8-.2a523.3 523.3 0 0 1 .2 9.3zM326.6 524.7c0-2.3.1-4.3.2-4.5 0-.2 0-.3.3-.2l1.5.3 35.4 8-36.6.6h-.8v-4.2z"/>
    <path fill="#d20404" d="M216.2 519.8c-.8-12.5 0-49.8 1.4-59.8 2-15.7 5.2-29.3 9.1-38.9 2.2-5.4 2.2-5.5 4.2-36 1-16.8 2.1-30.7 2.3-31s7.3 1.4 15.7 3.4l15.4 3.7 8.8-6.8c4.8-3.7 8.8-6.8 9-6.7l-2.8 36.4-2.9 36.3-18.4 42.3.3 5.8c.2 3.2.5 15.6.7 27.7.4 19.5.3 21.9-.7 22.3-.6.2-9.9 2.4-20.5 4.7l-20.3 4.6c-.6.2-1-2.2-1.3-8zM349.4 523.5a465 465 0 0 0-21-4.6c-1.3 0-1.3-1-.8-28.4l.5-28.5-18.1-41.6-2.8-35.5a5019 5019 0 0 1-2.8-36.6c0-.5 2 .6 4.5 2.6l8.9 6.9 4.4 3.4 15.4-3.7c8.5-2 15.6-3.6 15.7-3.5s1.1 13.9 2.2 30.6l1.9 30.2 2.3 6.2c6.6 17.2 10 37.5 10.9 64.7.4 14.6-.3 42.6-1.1 42.4l-20.1-4.6zM225 724.6l-.2-12.3 3.5 1.5 3.3 1.5v7.2c0 4 0 8.9.2 10.8l.2 3.5h-6.8l-.2-12.2zM227 744.4v-6.2H233.6v12.5H227v-6.3zM352.8 730.6l.2-10.6v-4.5l2.8-1 3.4-1.1c.6-.3.7 0 .4 9.3 0 5.3-.3 10.6-.4 11.8l-.2 2.3h-6.5l.3-6.2zM350.9 744.4v-6.2H357.6v4.9c0 2.7 0 5.5-.2 6.2l-.2 1.4h-6.4v-6.3z"/>
    <path d="M293.7 596.3"/>
    <path fill="#ccc" d="m347.4 523.1-17-4.5.5-27.6.4-27.6-15-40.7-2.3-35.3c-1.3-19.4-2.3-35.3-2.2-35.4.1-.2 3.4 2.6 7.2 6.1 3.9 3.5 7.4 6.4 7.8 6.4s5.9-1.5 12.2-3.5c6.4-1.9 12-3.4 12.3-3.4.4 0 1.4 13.5 2.3 30 1.2 23.6 1.8 30.7 3 34 3.6 10 6.5 25 8.2 42.4 1.4 15 1.6 64 .2 63.8l-17.6-4.7z" filter="url(#W)" opacity=".2"/>
    <path fill="#ccc" d="M221.1 504.9c-1-30.7 1.7-58.5 7.3-76.8 2.9-9.3 3-9.8 4.6-37.8.9-15.6 1.7-28.5 1.9-28.7.1-.2 5.5 1.2 12 3 6.5 1.9 12.1 3.4 12.5 3.4a55 55 0 0 0 7.5-6c3.7-3.3 6.8-6 7-5.8l-2.1 33.2-2.3 33-14.7 38.5.5 25.9.4 25.9-15.7 4c-8.7 2.1-16.4 4-17 4.3-1.2.4-1.4-1.6-1.9-16.2z" filter="url(#X)" opacity=".2"/>
    <path fill="#ccc" d="m281.3 750.3-6.3-2.6V742c0-6.2-5.7-163.3-6.5-177.7-.3-5.2-.9-9.9-1.3-10.5-.5-.6-1.2-21-1.7-45.4l-.8-44.2 15.6-41.1 2.6-37.3a871 871 0 0 1 8.3-78.4c.4-2.7.9-3.7 2-3.7 1.2 0 1.7 1 2 3.7l3.1 22.8c1.8 12 3.7 32.2 5.3 55.9l2.5 37 15.7 41-.9 44.3c-.5 28.3-1.2 44.8-1.8 45.6-.5.8-2.2 37.2-4.4 97.4l-3.6 96.2-6.5 2.7a27.2 27.2 0 0 1-23.3-.1zm25.1-184.7c2.8-3.4 5.4-9.4 6.7-15.3.8-4 .7-5.8-1.2-13.5-2-8-2.1-10.8-2.1-27.2 0-18 0-18.2-2.2-20.7-2-2.3-2.5-2.4-14.2-2.4-11 0-12.3.2-14.4 2l-2.3 2.1V509a96 96 0 0 1-2.1 27.6c-1.9 8-2 9.8-1.2 13.8 1.3 6 3.8 11.9 6.6 15.3 2.2 2.7 2.4 2.7 13.2 2.7 10.9 0 11 0 13.2-2.7zm4.2-100v-11H276v21.9h34.7v-11z" filter="url(#Y)" opacity=".2"/>
    <path fill="url(#Z)" d="m328 518.2.4-1.3.3-.7 3.3.6a1731.9 1731.9 0 0 1 34.6 8l3.7.7-1 .6c-1.4.6-3 1-4.6.8-.7 0-8.4-1.7-17.4-3.8-8.8-2-17-4-17.9-4l-1.7-.4.2-.5z" opacity=".4"/>
    <path fill="#fff" d="M262.5 469.6V463l1.5-1.5c2.6-2.6 5-6.2 7.6-11.2a249.8 249.8 0 0 0 17-57.9c1.2-6.3 1.6-8.7 3.2-19 .1-.7.2 2.1.1 8.6 0 11.2.2 9.1-2.4 23.3a124.2 124.2 0 0 0-3 23.9c0 4.7 0 5 .6 10.8l.6 6-5.4.2c-4.4.1-5.4.2-5.5.4a134.7 134.7 0 0 0-12.8 26.3l-1.4 3.3v-6.5z" filter="url(#aa)" opacity=".3"/>
    <path fill="#fff" d="M324 469.6V463l-1.5-1.5c-2.7-2.6-5-6.2-7.6-11.2a249.8 249.8 0 0 1-17-57.9c-1.2-6.3-1.6-8.7-3.2-19-.1-.7-.2 2.1-.2 8.6 0 11.2-.1 9.1 2.5 23.3 2.4 13.3 2.8 16.7 3 23.9 0 4.7 0 5-.6 10.8l-.6 6 5.4.2c4.4.1 5.4.2 5.5.4a134.7 134.7 0 0 1 12.8 26.3l1.4 3.3v-6.5z" filter="url(#ab)" opacity=".2"/>
    <path fill="url(#ac)" d="m291.6 450.6-3-3.3-1-.9-.2-2.2c-.3-3.6-.3-3.7-.3-7 0-6.2.3-9.8 1.2-16a587.8 587.8 0 0 1 3.8-21.5 42.8 42.8 0 0 0 .3-4.9v-.5h.5v25.8c0 23.5 0 30 .2 31v.3h-1l-.5-.8z" filter="url(#ad)" opacity=".6"/>
    <path fill="url(#ae)" d="M295 450.5c.8-1.2 1.9-2.3 2.9-3.3l.9-1 .2-2c.4-3.7.4-3.9.4-7.1 0-6.2-.3-9.9-1.3-16a587.8 587.8 0 0 0-3.7-21.5 42.8 42.8 0 0 1-.4-5v-.4h-.4V420c0 23.5 0 30-.2 31v.3h.9l.6-.8z" filter="url(#af)" opacity=".6"/>
    <rect width="36.6" height="10.6" x="275" y="462.3" fill="url(#ag)" ry="1.7"/>
    <path fill="#fff" d="m256 560.5-5.8-9.7c0-.1 1-.2 2.4-.2h2.6l2.4 3.5 2.4 3.5 1 6.1 1 6.3c-.1 0-2.8-4.2-6-9.4zM241.5 544.8v-2.4h14.3v4.9h-14.3v-2.5z" opacity=".3"/>
    <rect width="59.9" height="9.8" x="207.3" y="745.3" fill="url(#ah)" filter="url(#ai)" opacity=".3" ry="1.4" transform="matrix(1.042 0 0 .65088 101 252.4)"/>
    <rect width="59.9" height="9.8" x="207.3" y="745.3" filter="url(#ai)" opacity=".2" ry="1.4" transform="matrix(-.97635 0 0 .05642 579.6 695.2)"/>
    <rect width="59.9" height="9.8" x="207.3" y="745.3" fill="url(#ah)" filter="url(#ai)" opacity=".3" ry="1.4" transform="matrix(1.0551 0 0 .05084 99.2 699.2)"/>
    <path fill="#fff" d="M330.8 544.8v-2.4h14.3v4.9h-14.3v-2.5zM330.6 560.3l5.9-9.8s-1-.2-2.5-.2h-2.5l-4.8 7-1 6.2a96 96 0 0 0-1 6.2c.1 0 2.8-4.2 6-9.4z" opacity=".3"/>
    <path fill="url(#aj)" d="M234.2 416.9c-.5-11 .1-22.4 2.4-43.5l.4-3.2-1.7-1.7c-1.4-1.5-1.7-1.7-1.7-1.4a852 852 0 0 0-1.6 47.3c.1 3.2.2 4 .5 4.6.4.7 1.3 1.3 1.7 1V417z" opacity=".3"/>
    <rect width="59.9" height="9.8" x="207.3" y="745.3" filter="url(#ai)" opacity=".2" ry="1.4" transform="matrix(-1.4188 0 0 .23256 630.2 104.2)"/>
    <rect width="59.9" height="9.8" x="207.3" y="745.3" filter="url(#ai)" opacity=".3" ry="1.4" transform="matrix(-1.4049 0 0 .05642 626.8 234.8)"/>
    <rect width="59.9" height="9.8" x="207.3" y="745.3" filter="url(#ai)" opacity=".2" ry="1.4" transform="matrix(-.00536 .68213 -.23256 -.00183 512.4 117.8)"/>
    <rect width="59.9" height="9.8" x="207.3" y="745.3" filter="url(#ai)" opacity=".2" ry="1.4" transform="matrix(0 -.68676 -.23256 0 490.6 441.3)"/>
    <rect width="59.9" height="9.8" x="207.3" y="745.3" filter="url(#ai)" opacity=".3" ry="1.4" transform="matrix(0 -.68302 -.05642 0 358.6 439.6)"/>
    <rect width="59.9" height="9.8" x="207.3" y="745.3" filter="url(#ai)" opacity=".2" ry="1.4" transform="matrix(0 -.68676 -.23256 0 443.7 441.3)"/>
    <rect width="59.9" height="9.8" x="207.3" y="745.3" filter="url(#ai)" opacity=".3" ry="1.4" transform="matrix(0 -.67707 -.05642 0 311.8 438.4)"/>
    <rect width="59.9" height="9.8" x="207.3" y="745.3" filter="url(#ai)" opacity=".2" ry="1.4" transform="matrix(.00862 .6821 .23254 -.00294 73.4 118.9)"/>
    <rect width="59.9" height="9.8" x="207.3" y="745.3" filter="url(#ai)" opacity=".3" ry="1.4" transform="matrix(-1.4049 0 0 .05642 626.8 214.8)"/>
    <rect width="59.9" height="9.8" x="207.3" y="745.3" filter="url(#ai)" opacity=".2" ry="1.4" transform="matrix(-1.4188 0 0 1.2363 630.2 -638.2)"/>
    <rect width="59.9" height="9.8" x="207.3" y="745.3" filter="url(#ai)" opacity=".2" ry="1.4" transform="matrix(-1.4188 0 0 1.2363 630.2 -660.2)"/>
    <path fill="#fff" d="M227.3 648.8c0-.2.1-.3 1-.9a41.8 41.8 0 0 0 4.6-3.2c.5 0 6.3-4.7 9.8-8 2.3-2 8-7.6 15.8-15.4 5.6-5.5 6.7-6.6 7-6.6l.2 1.2a270 270 0 0 1-13.8 14.5 119.3 119.3 0 0 1-24.6 18.4zM234.9 652.5a2142.4 2142.4 0 0 0 32-4.2l-6.7 1.6c-7.9 1.6-17.4 2.6-24.7 2.7h-2.4l1.8-.1zM248.4 659.7a75.9 75.9 0 0 1-15-2.5l3.7.2a399.4 399.4 0 0 0 27.5 1.5h1.6l-3.4.3a98.7 98.7 0 0 1-14.4.5zM265.7 671.6c-12.3-1.5-20.5-3-28.3-5.2a50 50 0 0 1-6.6-2.2l1.8.4a137.6 137.6 0 0 0 12 2.6l3.4.7a209.5 209.5 0 0 0 19.1 2.3l.1.8v.8l-1.5-.2zM358 648.6c0-.3-.1-.4-1-1a41.8 41.8 0 0 1-4.5-3.3c-.5 0-6.2-4.9-9.6-8.2a824 824 0 0 1-15.4-15.9 53.5 53.5 0 0 0-6.7-6.8c-.2 0-.3.8-.3 1.2 0 .4 10 11.4 13.4 14.8a119.4 119.4 0 0 0 24 19.2zM350.6 652.2a2142.4 2142.4 0 0 1-32-4.1l6.7 1.5c7.9 1.6 17.4 2.7 24.7 2.8h2.4l-1.8-.2zM337 659.7a75.9 75.9 0 0 0 15-2.5l-3.6.2A399.4 399.4 0 0 1 321 659h-1.6l3.4.3a98.7 98.7 0 0 0 14.4.5zM320.9 671.3c12.2-1.4 20.5-3 28.2-5.1a50 50 0 0 0 6.6-2.2l-1.8.4a137.6 137.6 0 0 1-12 2.6l-3.4.6a209.5 209.5 0 0 1-19.1 2.4l-.1.8.1.7 1.5-.2z" opacity=".5"/>
    <rect width="59.9" height="9.8" x="207.3" y="745.3" fill="url(#ah)" filter="url(#ai)" opacity=".3" ry="1.4" transform="matrix(1.0593 0 0 .65088 -13.6 252.4)"/>
    <rect width="59.9" height="9.8" x="207.3" y="745.3" filter="url(#ai)" opacity=".2" ry="1.4" transform="matrix(-.97635 0 0 .05642 469.6 695.2)"/>
    <rect width="59.9" height="9.8" x="207.3" y="745.3" fill="url(#ah)" filter="url(#ai)" opacity=".3" ry="1.4" transform="matrix(1.1013 0 0 .05084 -23.1 699.2)"/>
    <rect width="59.9" height="9.8" x="207.3" y="745.3" fill="url(#ah)" filter="url(#ai)" opacity=".3" ry="1.4" transform="matrix(0 .22965 -.65088 0 755.8 690.1)"/>
    <rect width="59.9" height="9.8" x="207.3" y="745.3" fill="url(#ah)" filter="url(#ai)" opacity=".2" ry="1.4" transform="matrix(0 .08459 -.65088 0 755.6 715)"/>
    <rect width="59.9" height="9.8" x="207.3" y="745.3" fill="url(#ah)" filter="url(#ai)" opacity=".3" ry="1.4" transform="matrix(0 .22965 -.65088 0 808 690)"/>
    <rect width="59.9" height="9.8" x="207.3" y="745.3" fill="url(#ah)" filter="url(#ai)" opacity=".2" ry="1.4" transform="matrix(0 .08459 -.65088 0 807.8 714.7)"/>
    <path fill="#666" d="m205.2 754.1-2.6-1.7-.1-2.3-.2-7.2-.1-4.9h2c1.6 0 2 0 2 .2l1 8.5c1 8.5 1 9.2.7 9.1 0 0-1.3-.7-2.7-1.7zM202.1 733.5a3239.2 3239.2 0 0 1-.9-32.9c0-.4 0-.5.5-.5l.5.1L206 736l.2.7h-4v-3.2zM384 733.2a3239.2 3239.2 0 0 0 .9-32.8c0-.5 0-.5-.5-.5h-.5l-3.8 35.8-.1.8h3.9l.1-3.3zM380.7 754l2.7-1.7V750l.3-7.2v-4.9h-2c-1.5 0-2 0-2 .2l-1 8.5c-.9 8.5-1 9.2-.7 9.2l2.7-1.8z" opacity=".6"/>
    <path fill="url(#ak)" d="m258.2 518.2-.5-1.4-.3-.7-3.3.6a1699.8 1699.8 0 0 0-35.1 7.8l-3.8.8 1.1.6c1.4.7 3.1 1 4.6 1l17.6-3.9 18.1-4 1.8-.3-.2-.5z" opacity=".5"/>
    <path fill="url(#al)" d="M261.4 365.3c-6.8-3-14.2-5.3-28.3-8.9l-2.1-.5-.6-1.5c-.5-1.2-.5-1.4-.3-1.4a587.5 587.5 0 0 1 30.4 10.4c2 .8 2.5 1.1 2.8 1.4.3.4.4 1.1.1 1.3l-2-.8z" opacity=".3"/>
    <path fill="url(#am)" d="M352.1 416.9c.6-11 0-22.4-2.4-43.5l-.3-3.2 1.7-1.7c1.4-1.5 1.7-1.7 1.7-1.4a852 852 0 0 1 1.5 47.3c0 3.2-.2 4-.5 4.6-.3.7-1.2 1.3-1.6 1V417z" opacity=".3"/>
    <path fill="url(#an)" d="M325 365.3c6.7-3 14.2-5.3 28.3-8.9l2.1-.5.6-1.5c.5-1.2.5-1.4.3-1.4a587.5 587.5 0 0 0-30.4 10.4c-2 .8-2.5 1.1-2.8 1.4-.3.4-.4 1.1-.1 1.3l2-.8z" opacity=".3"/>
    <path d="M257.2 491.7c-.6-43 0-66.3 2.5-87.3a103 103 0 0 0-1.1-37c-.9-4.7-1.2-7.6-.9-7.5l3.4.9c2.8.6 2.8.6 5.3-1l8.4-6.3a32 32 0 0 1 6.3-4.2c.3.4-.5 13.3-3.2 47.9l-1.8 23L258 462l.3 16 .6 28c.3 10.8.2 12.3-.4 12.3-.7 0-.8-3.3-1.2-26.6z" filter="url(#ao)" opacity=".3"/>
    <path d="M326.6 518.3c-.1-1.7.1-20 .5-36.2l.4-19.6-18.2-41.5-1.2-15c-2.1-26.2-4.2-56.2-4-56.4a68 68 0 0 1 7.4 5c10.7 7.8 9.5 7.2 13.4 6.4 3-.7 3.2-.7 3 0a110.5 110.5 0 0 0-2.3 45.3 447.5 447.5 0 0 1 2.3 28.8c.7 9.7 0 83.6-.9 83.6-.2 0-.4-.2-.4-.4z" filter="url(#ap)" opacity=".3"/>
    <path fill="url(#aq)" d="M354.8 520.7h-1.6l.1-37.5.1-37.5.6-.7c.8-.8 2.2-1.5 3.1-1.5h.8V521h-.8l-2.3-.2z" filter="url(#ar)" opacity=".3" transform="matrix(4.8182 0 0 1 -1353.3 8)"/>
    <path fill="url(#as)" d="m228.7 527-1.6-.1.1-37.5v-37.6l.7-.6c.8-.8 2.2-1.5 3.1-1.5h.8v77.4h-.8l-2.3-.2z" filter="url(#at)" opacity=".3" transform="matrix(5.7861 0 0 1 -1098.8 2.9)"/>
    <path fill="url(#aj)" d="M234.2 416.9c-.5-11 .1-22.4 2.4-43.5l.4-3.2-1.7-1.7c-1.4-1.5-1.7-1.7-1.7-1.4a852 852 0 0 0-1.6 47.3c.1 3.2.2 4 .5 4.6.4.7 1.3 1.3 1.7 1V417z" opacity=".3"/>
    <path fill="url(#au)" d="M292.9 714.2h-1.6l.1-37.5.1-37.5.6-.6c.8-.9 2.2-1.5 3.1-1.5h.8V714.4h-.8l-2.3-.2z" filter="url(#ar)" opacity=".3" transform="matrix(3.3317 0 0 1.2992 -685 -187.3)"/>
    <path fill="url(#au)" d="M292.9 714.2h-1.6l.1-37.5.1-37.5.6-.6c.8-.9 2.2-1.5 3.1-1.5h.8V714.4h-.8l-2.3-.2z" filter="url(#ar)" opacity=".3" transform="matrix(3.3317 0 0 1.2992 -684.7 -253.8)"/>
    <path fill="#333" d="M262 358.9c-.4-.4-.4-.4-.5 0-.1.2-.2.2-.3-.1-.2-.3-.3-.3-.4-.1-.2.2-.2.2-.2 0s0-.2-.2 0c-.1.2-.2.2-.2 0 0-.1 0-.2-.1-.1-.1 0-.3 0-.5-.2s-.3-.2-.3 0c0 .1 0 .1-.1 0-.2-.2-.2-.3-.2-.1 0 .1-.1.2-.3.2s-.3 0-.3-.2-.6-.2-.7 0l-10.5-2.4a88 88 0 0 1-9.7-2.5 2662.5 2662.5 0 0 1 32.8-.9h2.3l-.3.4c-.2.2-.4.4-.5.3-.1 0-.2 0-.3.3 0 .2-.2.4-.3.3-.1 0-.3 0-.3.3 0 .2-.2.3-.3.2-.1 0-.2 0-.2.2 0 .4-.4.5-.5.2-.2-.2-.2-.1-.2.1s0 .3-.2.2c0 0-.2.1-.3.4l-.3.4v-.2c.1-.5-.2-.3-.4.1 0 .2-.2.4-.3.4-.5 0-.8.3-.8.6 0 .2-.1.4-.3.4l-.7.5-.7.6c-.1 0-.3 0-.5.2-.7.8-2.6 1.1-3.3.4zM324.2 359c.3-.3.3-.3.5 0 0 .2 0 .2.3 0 .1-.4.2-.4.3-.2.2.3.2.3.2 0 0-.2 0-.2.2 0 .1.2.2.2.2 0 0 0 0-.1.2 0l.4-.2c.2-.3.3-.3.3 0l.2-.1c0-.2.1-.2.1 0l.3.2.3-.2c0-.2.6-.3.7 0L339 356a88 88 0 0 0 9.7-2.6 2662.5 2662.5 0 0 0-32.8-.8l-2.3-.1.4.4.4.4c.1 0 .2 0 .3.3 0 .2.2.3.3.3.1-.1.3 0 .3.2s.2.3.3.3l.2.1c0 .4.4.6.6.3 0-.2.1-.2.1 0s.1.3.2.3.3 0 .4.3c0 .3.2.5.2.5v-.3c-.1-.4.2-.3.4.1 0 .3.2.5.3.5.5 0 .8.3.8.6 0 .2.2.3.3.3l.7.6c.3.3.6.5.8.5s.3.1.4.3c.7.8 2.6 1 3.3.4z" opacity=".8"/>
    <path fill="url(#as)" d="m228.7 527-1.6-.1.1-37.5v-37.6l.7-.6c.8-.8 2.2-1.5 3.1-1.5h.8v77.4h-.8l-2.3-.2z" filter="url(#at)" opacity=".3" transform="matrix(5.7861 0 0 1 -1098.8 2.9)"/>
    <path fill="url(#aq)" d="M354.8 520.7h-1.6l.1-37.5.1-37.5.6-.7c.8-.8 2.2-1.5 3.1-1.5h.8V521h-.8l-2.3-.2z" filter="url(#ar)" opacity=".3" transform="matrix(4.8182 0 0 1 -1353.3 8)"/>
    <path fill="url(#au)" d="M292.9 714.2h-1.6l.1-37.5.1-37.5.6-.6c.8-.9 2.2-1.5 3.1-1.5h.8V714.4h-.8l-2.3-.2z" filter="url(#ar)" opacity=".3" transform="matrix(3.3317 0 0 1.2992 -685 -227.3)"/>
    <path fill="url(#an)" d="M325 365.3c6.7-3 14.2-5.3 28.3-8.9l2.1-.5.6-1.5c.5-1.2.5-1.4.3-1.4a587.5 587.5 0 0 0-30.4 10.4c-2 .8-2.5 1.1-2.8 1.4-.3.4-.4 1.1-.1 1.3l2-.8z" opacity=".3"/>
    <path fill="url(#al)" d="M261.4 365.3c-6.8-3-14.2-5.3-28.3-8.9l-2.1-.5-.6-1.5c-.5-1.2-.5-1.4-.3-1.4a587.5 587.5 0 0 1 30.4 10.4c2 .8 2.5 1.1 2.8 1.4.3.4.4 1.1.1 1.3l-2-.8z" opacity=".3"/>
    <path fill="url(#aq)" d="M354.8 520.7h-1.6l.1-37.5.1-37.5.6-.7c.8-.8 2.2-1.5 3.1-1.5h.8V521h-.8l-2.3-.2z" filter="url(#ar)" opacity=".3" transform="matrix(3.1614 0 0 .99093 -772.5 -89.4)"/>
    <path fill="url(#aq)" d="M354.8 520.7h-1.6l.1-37.5.1-37.5.6-.7c.8-.8 2.2-1.5 3.1-1.5h.8V521h-.8l-2.3-.2z" filter="url(#ar)" opacity=".3" transform="matrix(3.1614 0 0 .99093 -888.5 -89.4)"/>
    <path d="M235 514.4a24.7 24.7 0 0 0-17.3-3.5c-.9.1-1.5.2-1.6.1v-.4l-.1-.4 1-.1a41.2 41.2 0 0 1 10.6.3 26 26 0 0 1 8 3.4l.7.4h23.4V513a22065.5 22065.5 0 0 0-.4-49.6V462h1a28977.2 28977.2 0 0 1 .2 53h-.2c0 .1-5.5.2-12 .2h-12.1l-1.2-.7zM262.4 484.8l-.3-.3 2.8-3.5a15 15 0 0 1 6.5-4.4l1-.4H314l.9.3c2.4.8 4.3 2 6.2 4.1l3.1 3.8s0 .2-.3.4-.3.2-.4 0l-1.2-1.5c-2.7-3.4-4.7-5-7.6-5.9l-.8-.3h-41.4l-.9.3c-3 1-5 2.6-7.7 6.2l-1 1.3-.5-.1zM261.7 474.3l-.1-.5v-.3h1l2.3-.3c2.2-.1 3.2-.4 4.4-1.2 1.2-.8 2.4-2.3 3.3-4l.3-.5.3.2.4.2a12 12 0 0 1-4.6 5.3c-1.3.6-2.3.8-5 1a49.3 49.3 0 0 0-2.3 0zM323.4 474l-2.1-.2c-2.9-.2-4.4-.9-6.1-2.5a13 13 0 0 1-2.5-3.6l.4-.3.3-.2.4.6a9.4 9.4 0 0 0 4.4 4.5c1 .4 1.7.5 3.3.6l3.3.3v.5c0 .4 0 .4-1.4.3zM312.7 453.8l-.2-.4 1.4-.7 1.4-.6h9.4v.9h-9.2l-1.2.5-1.4.6-.2-.3zM272 453.6l-1.2-.6H262v-.9h8.9l1.3.7 1.4.6-.2.4-.3.4-1.2-.6zM292.8 380.6l.1-72.6h-1.5c-1.2 0-1.5-.1-1.5-.4 0-.3.5-.4 3.4-.4s3.4 0 3.4.4c0 .3-.3.4-1.5.4h-1.4l-.2 21.6-.2 72.6c0 47.4 0 51-.4 51s-.4-5-.2-72.6zM351.5 514.4a25 25 0 0 1 17.4-3.5l1.5.1.1-.4.1-.4-1-.1a41.7 41.7 0 0 0-10.7.3c-2.8.6-5.5 1.7-8 3.4l-.8.4h-23.5V513a21730.4 21730.4 0 0 1 .4-49.6V462h-1a28910.2 28910.2 0 0 0-.1 53h.2c0 .1 5.4.2 12 .2h12.2l1.2-.7z" opacity=".5"/>
    <path fill="#cbcbcb" d="M371.3 468.2v-21a11506 11506 0 0 1 0 21zM324.5 471.8c0-.2 0-.3.1-.1v.3-.2zM279.2 565.8a22.1 22.1 0 0 1-3.3-3.8c-2.6-3.9-4.4-8.6-5.5-14.5l-.4-2 5-19.7v-17.6l.1-17.7.8-1c.8-1.3 2-2.3 3-2.8.8-.2 2-.3 14.4-.3h13.6l1 .5c1 .4 2.4 1.8 3 2.9.2.4.5.7.6.7.1 0 .1 6.2 0 17.4l-.1 17.4 5.2 20.2-.4 2.3a40 40 0 0 1-3.5 10.7 26.6 26.6 0 0 1-5 7l-1.7 1.8h-25.4l-1.4-1.5zm28-1a33.5 33.5 0 0 0 8.3-17.7l.2-1.7-5-19.6V491l-.4-.7c-.7-1.1-1.7-2.2-2.6-2.6-.7-.4-1-.4-14.4-.4-15.4 0-14.3-.1-15.8 1.5-1.8 1.7-1.6-.1-1.6 19.6v17.3l-5 19.7.2 1.4c0 .8.5 2.5.8 3.8a30 30 0 0 0 7.3 14.1l1.6 1.7h25l1.5-1.5z"/>
    <path fill="#ff0" fill-opacity="0" d="m324 468.6-.4-.4v-7.6a86.9 86.9 0 0 1 .1-8.5l-.6-6.2c-.4-5.7-.4-6.2-.2-6.4l.2-.3c0-.3-.2-.8-.4-.7h-.1c0-1.4-1.8-22.8-2.7-31a98.7 98.7 0 0 0-4-22.2c-.1-.1 0-.2.3-.2.5 0 .4-.2 1.1 2.4 1.3 4.4 2 8.1 2.6 12.1.6 4 2.2 20.5 3.3 34.8 1.4 18.4 1.3 17 1.3 26.3v8.3l-.5-.4z"/>
    <path d="M293.5 452.7a24.4 24.4 0 0 1 9.8-8c2.2-1 4-1.5 8.1-2.4a7608.5 7608.5 0 0 0 6.1-1.3c1-.3 1-.3 1-.5 0-.5-.2-.6-.3-.5l-4.3 1a55.6 55.6 0 0 0-9.4 2.4 25.7 25.7 0 0 0-12 9.3l.3.3.3.2.4-.5z" opacity=".5"/>
    <path d="M292.6 452.8a25.5 25.5 0 0 0-10-7.5 38 38 0 0 0-8.4-2.4 7935.6 7935.6 0 0 1-6.3-1.2c-1-.3-1-.3-1-.5.1-.4.2-.5.3-.5l4.5 1c5.6 1 7.3 1.4 9.7 2.2a26.6 26.6 0 0 1 12.2 8.8l-.3.3-.3.2-.4-.4zM269.6 681v-.5H317v1h-47.3v-.5z" opacity=".5"/>
    <path fill="none" stroke="#000" stroke-width=".2" d="M284 490.3c.5-1.2 1.6-1.2 2.7-1.5 5.6-.4 9.6-.3 12.9-.1M284 490.3c-1.4 3.3-3 6.5-4.6 9.5"/>
    <path fill="none" stroke="#000" stroke-width=".2" d="M279.4 499.7c0 2-.6 3-1.2 4.3.3 7 2.5 13.8 15.6 14.9M279.3 515.3l5 8.5 4.3 2.3 5.1.8"/>
    <path fill="none" stroke="#000" stroke-width=".2" d="m284.2 523.7.9 1.4 3.7 2.8 4.9 1.2M279.3 515.4l-.7-7.2M287 488.8c-2.7 1.5-4.1 6.1-5.9 9.8-1.6 15 10 16.8 12.6 16.9"/>
    <path fill="none" stroke="#000" stroke-width=".2" d="m285 525.2.8 4.6h3.5V528M302.7 490.3c-.4-1.2-1.6-1.2-2.7-1.5-5.6-.4-9.6-.3-12.9-.1M302.7 490.3c1.4 3.3 3 6.5 4.6 9.5"/>
    <path fill="none" stroke="#000" stroke-width=".2" d="M307.3 499.7c0 2 .7 3 1.2 4.3-.3 7-1.8 13.8-14.8 14.9M307.4 515.3l-5 8.5-4.2 2.3-5.2.8"/>
    <path fill="none" stroke="#000" stroke-width=".2" d="m302.5 523.7-.8 1.4-3.7 2.8-5 1.2M307.4 515.4l.7-7.2M299.7 488.8c2.8 1.5 4.1 6.1 5.9 9.8 1.6 15-9.4 16.8-12 16.9"/>
    <path fill="none" stroke="#000" stroke-width=".2" d="m301.6 525.2-.7 4.6h-3.5V528"/>
    <path d="m291 526.4-2.3-.4-4.3-2.3-5-8.5-.2-2.6a25.5 25.5 0 0 1-.1-2.6c0 .4.9 2.3 1.5 3.1 2.3 3.2 6 5 11.6 5.7a9 9 0 0 0 3 0c6.4-.8 10.2-3 12-7 .5-1.2.5-1.2.2 1.5l-.2 2-4.9 8.4-4.2 2.3-2.1.3-2.4.4-2.6-.4z"/>
    <path fill="url(#av)" d="m291.2 526.4-2.3-.4-4.3-2.3-2.5-4.3-2.4-4.2-.3-2.6a25.5 25.5 0 0 1-.1-2.6c0 .4.9 2.3 1.5 3.1 2.2 3.2 6 5 11.6 5.7a9 9 0 0 0 3 0c6.4-.8 10.2-3 12-7 .5-1.2.5-1.2.2 1.5l-.2 2-5 8.4-4.2 2.3-2 .3-2.5.4-2.5-.3z" opacity=".5"/>
    <path d="M292.7 515.2c-1.4-.2-2.6-.5-4.1-1.2a11.2 11.2 0 0 1-5.6-5 14.1 14.1 0 0 1-1.8-7.8v-2.4l1.3-2.9c1.5-3.4 2.3-4.8 3.2-5.9 1.2-1.2.9-1.2 7.7-1.2s6.4 0 7.6 1.2c1 1 1.7 2.5 3.2 6l1.3 2.8v2.6a15 15 0 0 1-1 6 11.2 11.2 0 0 1-6 6.7c-2.1 1-4.1 1.3-5.8 1.1z"/>
    <path fill="url(#aw)" d="M123.2 489a56 59.3 0 1 1 1.1.2" opacity=".5" transform="matrix(.1942 0 0 .19224 268.1 415.3)"/>
    <path d="M285.9 529.7a219 219 0 0 0-.7-4.3 122.1 122.1 0 0 1 3.7 2.7h.2v.5l.1.7v.3h-1a176.7 176.7 0 0 0-2.3.1zM298.8 529.7h-1.3V528h.3l.3-.1a696.5 696.5 0 0 0 3.4-2.6l-.3 2.1-.4 2.2h-2z"/>
    <path fill="#fff" d="M292.7 518.6c-5.6-.7-9.4-2.4-11.6-5.4-1.4-1.8-2.2-4-2.5-6.9-.3-2-.3-2.2.2-3.3.5-1.1.7-1.9.7-2.5 0-.5 0-.7.5-1.4 1.1-2 2.7-5.5 3.9-8.1.5-1.1.8-1.4 1.5-1.7.8-.3.8-.2.4.2-1.1 1.1-2 2.6-3.7 6.6l-1.2 2.6v1.8c-.1 3.5.4 6.1 1.6 8.5 1.8 3.2 5 5.5 9 6.3a12 12 0 0 0 10.3-3c2-1.9 3.3-4.3 3.8-7.5.2-1.2.3-4 .2-5.3 0-1-.1-1-1.2-3.6a21.1 21.1 0 0 0-4-6.8c.4 0 1.3.4 1.5.6a87.5 87.5 0 0 0 4.2 8.4c.9 1.8 1 2 1 2.4 0 .7.1 1.3.7 2.6l.4.9-.1 1.2c-.3 4.5-1.4 7.4-3.6 9.6-2.1 2-5.4 3.3-9.6 3.8a119.4 119.4 0 0 0-2.4 0zM291 528.3l-2.2-.5-1.5-1.1c-2-1.6-2.2-1.8-2.4-2.2l-.2-.3 2 1 1.8 1 2.1.4a49.5 49.5 0 0 1 3.2.4l2.3-.4 2.2-.4 1.8-1 2-1-.3.4c-.2.3-1 1-2.1 1.8l-1.8 1.4-2.2.5-2.4.6-2.3-.6z"/>
    <path d="M279 566.3a30 30 0 0 1-4.4-6c-2-3.4-3.6-7.8-4.4-11.8a9.7 9.7 0 0 1-.2-2.9c.1-1.7.4-3 2.8-12.2l1.8-7.3.1-16.7c0-9.9.1-17 .2-17.7.2-1.5.5-2.3 1.3-3.3 1.2-1.5 2.3-2 5.7-2.2a386.6 386.6 0 0 1 24 0c3.6.6 5 1.9 5.6 5 .4 2.2.4 3.7.5 19.4v15.7l4.9 19.2-.2.9c-.5 3.2-1.7 7.4-2.7 10-1.6 3.7-3 6-6.4 9.8l-1.3 1.6h-26l-1.3-1.5zm22.8-.7 1.3-.3c2.1-.1 4.1-.6 4.4-1l1.2-1.6a33.2 33.2 0 0 0 6.2-14.1c.6-2.4.6-3 .2-4.7a6 6 0 0 1-.2-1l-.1-.7c-.2 0-.2-.2-.2-.5l-.2-.6-.3-1.3-1.3-5.2-1.7-6.3-.6-2.3V491l-.4-.7c-.8-1-1.9-2-2.4-2.3-.9-.5-2-.5-13.8-.5-11.3 0-14.1 0-14.9.4-.5.2-2.2 2-2.6 2.8l-.3.6V517l.2 8.3-2 7.6-2.6 10c-.7 2.6-.7 2.2 0 5.7a30 30 0 0 0 1.8 6.3c1.4 3.4 3.3 6.7 5 8.5.8 1 1.8 1.5 3.1 1.7l1.3.4c.4.2.9.3 9.5.3 7.4 0 9.1 0 9.4-.2z"/>
    <path fill="#666" d="m281.7 553.9-2.1-1v-1.4c-.1-.3 0-.4.6-1l.8-.5 24-.1.7.5.8.6v.8c0 .4 0 .8-.2 1l-2.3 1.1-2.2 1h-18l-2-1z"/>
    <path fill="#fff" d="M279.8 553c-.7.1-.9-.3-2.2-4l-.5-1.4h2.7l1.7 1.6 1.6 1.6-.7 1c-.7 1-1.2 1.2-2.6 1.3zM303.3 552c-.8-.8-.8-.9 1-2.6 1.2-1.2 1.6-1.5 3-1.7l1.4-.2-1.1 2.5a51 51 0 0 1-1.2 2.5H305c-1 .1-1.3 0-1.8-.5zM366 419l-.8-64.7v-1.1l-9-2.8a198.5 198.5 0 0 1 9.3 2.8c.1.1.3 10 .6 33.2.4 30.3.4 33 .2 33.2s-.2.2-.3-.7z"/>
    <path fill="#fff" d="M219 419.7a6269.7 6269.7 0 0 1 .7-66.5 600.7 600.7 0 0 1 9.3-2.8l-8.9 2.8v1.7l-.9 64.9-.2-.1z" opacity=".3"/>
    <path fill="#fff" d="M219.2 419.7a6269.7 6269.7 0 0 1 .7-66.5 600.7 600.7 0 0 1 9.4-2.8l-9 2.8v1.7l-.8 64.9-.3-.1z" opacity=".3"/>
    <path fill="#fff" d="M219.4 420a6269.7 6269.7 0 0 1 .7-66.5 600.7 600.7 0 0 1 9.4-2.9l-9 2.9v1.7l-.8 64.8h-.3z" opacity=".3"/>
    <path fill="#fff" d="M219 419.7a6269.7 6269.7 0 0 1 .7-66.5 600.7 600.7 0 0 1 9.3-2.8l-8.9 2.8v1.7l-.9 64.9-.2-.1z" opacity=".3"/>
    <path fill="#fff" d="M219.2 419.7a6269.7 6269.7 0 0 1 .7-66.5 600.7 600.7 0 0 1 9.4-2.8l-9 2.8v1.7l-.8 64.9-.3-.1z" opacity=".3"/>
    <path fill="#fff" d="M219.4 420a6269.7 6269.7 0 0 1 .7-66.5 600.7 600.7 0 0 1 9.4-2.9l-9 2.9v1.7l-.8 64.8h-.3z" opacity=".3"/>
    <path fill="#fff" d="M219 419.7a6269.7 6269.7 0 0 1 .7-66.5 600.7 600.7 0 0 1 9.3-2.8l-8.9 2.8v1.7l-.9 64.9-.2-.1z" opacity=".3"/>
    <path fill="#fff" d="M219.2 419.7a6269.7 6269.7 0 0 1 .7-66.5 600.7 600.7 0 0 1 9.4-2.8l-9 2.8v1.7l-.8 64.9-.3-.1z" opacity=".3"/>
    <path fill="#fff" d="M219.4 420a6269.7 6269.7 0 0 1 .7-66.5 600.7 600.7 0 0 1 9.4-2.9l-9 2.9v1.7l-.8 64.8h-.3zM366.5 419.7c.2-.2.1-3.4-.3-33.3l-.5-33.2a600.7 600.7 0 0 0-9.3-2.8l9 2.8v1.7l.8 64.9.3-.1z" opacity=".3"/>
    <path fill="#fff" d="M366.2 419.7a6269.7 6269.7 0 0 0-.7-66.5 600.7 600.7 0 0 0-9.3-2.8l8.9 2.8v1.7l.9 64.9.2-.1z" opacity=".3"/>
    <path fill="#fff" d="M366 420a6269.7 6269.7 0 0 0-.7-66.5 600.7 600.7 0 0 0-9.3-2.9l8.8 2.9v1.7l1 64.8h.2z" opacity=".3"/>
    <path fill="#fff" d="M366.5 419.7c.2-.2.1-3.4-.3-33.3l-.5-33.2a600.7 600.7 0 0 0-9.3-2.8l9 2.8v1.7l.8 64.9.3-.1z" opacity=".3"/>
    <path fill="#fff" d="M366.2 419.7a6269.7 6269.7 0 0 0-.7-66.5 600.7 600.7 0 0 0-9.3-2.8l8.9 2.8v1.7l.9 64.9.2-.1z" opacity=".3"/>
    <path fill="#fff" d="M366 420a6269.7 6269.7 0 0 0-.7-66.5 600.7 600.7 0 0 0-9.3-2.9l8.8 2.9v1.7l1 64.8h.2z" opacity=".3"/>
    <path fill="#fff" d="M366.5 419.7c.2-.2.1-3.4-.3-33.3l-.5-33.2a600.7 600.7 0 0 0-9.3-2.8l9 2.8v1.7l.8 64.9.3-.1z" opacity=".3"/>
    <path fill="#fff" d="M366.2 419.7a6269.7 6269.7 0 0 0-.7-66.5 600.7 600.7 0 0 0-9.3-2.8l8.9 2.8v1.7l.9 64.9.2-.1z" opacity=".3"/>
    <path fill="#fff" d="M366 420a6269.7 6269.7 0 0 0-.7-66.5 600.7 600.7 0 0 0-9.3-2.9l8.8 2.9v1.7l1 64.8h.2z" opacity=".3"/>
</svg>
